<svg xmlns="http://www.w3.org/2000/svg" xmlns:xlink="http://www.w3.org/1999/xlink">
    <symbol viewBox="0 0 40 40" id="tg">
        <path
            d="M37.8663 7.6743L32.4431 33.2501C32.034 35.0552 30.967 35.5043 29.4506 34.6541L21.1875 28.5649L17.2005 32.3998C16.7594 32.8409 16.3902 33.2101 15.5398 33.2101L16.1334 24.7943L31.4484 10.9555C32.1142 10.3619 31.304 10.0329 30.4134 10.6266L11.4805 22.548L3.32961 19.9969C1.55664 19.4433 1.52461 18.2238 3.6986 17.3735L35.5799 5.0911C37.0559 4.53758 38.3477 5.41992 37.8663 7.6743Z" />
    </symbol>
    <symbol viewBox="0 0 15 15" id="heart">
        <path
            d="M15.0001 5.57927C13.5557 12.3476 6.69484 14.3348 4.61853 14.9085C2.54221 15.4822 4.16721 11.3415 4.88938 8.41463C5.61155 5.4878 9.13229 1.55488 11.9308 1.82927C14.7293 2.10365 15.0001 4.02439 15.0001 5.57927Z" />
        <path
            d="M5.3406 7.13415C5.3406 8.29597 4.96475 15 4.16704 15C3.36932 15 -0.256409 6.85976 0.0144129 4.48171C-0.166127 1.0061 1.74438 0 2.54209 0C3.33981 0 5.3406 1.28049 5.3406 7.13415Z" />
    </symbol>
</svg>