<svg xmlns="http://www.w3.org/2000/svg" xmlns:xlink="http://www.w3.org/1999/xlink">
    <symbol viewBox="0 0 40 40" id="tg">
        <path
            d="M37.8663 7.6743L32.4431 33.2501C32.034 35.0552 30.967 35.5043 29.4506 34.6541L21.1875 28.5649L17.2005 32.3998C16.7594 32.8409 16.3902 33.2101 15.5398 33.2101L16.1334 24.7943L31.4484 10.9555C32.1142 10.3619 31.304 10.0329 30.4134 10.6266L11.4805 22.548L3.32961 19.9969C1.55664 19.4433 1.52461 18.2238 3.6986 17.3735L35.5799 5.0911C37.0559 4.53758 38.3477 5.41992 37.8663 7.6743Z" />
    </symbol>
    <symbol viewBox="0 0 15 15" id="heart">
        <path
            d="M15.0001 5.57927C13.5557 12.3476 6.69484 14.3348 4.61853 14.9085C2.54221 15.4822 4.16721 11.3415 4.88938 8.41463C5.61155 5.4878 9.13229 1.55488 11.9308 1.82927C14.7293 2.10365 15.0001 4.02439 15.0001 5.57927Z" />
        <path
            d="M5.3406 7.13415C5.3406 8.29597 4.96475 15 4.16704 15C3.36932 15 -0.256409 6.85976 0.0144129 4.48171C-0.166127 1.0061 1.74438 0 2.54209 0C3.33981 0 5.3406 1.28049 5.3406 7.13415Z" />
    </symbol>
    <symbol viewBox="0 0 40 40" id="burger">
        <line x1="8" y1="13.5" x2="32" y2="13.5" stroke="black" />
        <line x1="8" y1="19.5" x2="32" y2="19.5" stroke="black" />
        <line x1="8" y1="25.5" x2="32" y2="25.5" stroke="black" />
    </symbol>
    <symbol viewBox="0 0 40 40" id="close">
        <line x1="12.3536" y1="11.6464" x2="29.3241" y2="28.617" stroke="black" />
        <line x1="11.6464" y1="28.6464" x2="28.617" y2="11.6759" stroke="black" />
    </symbol>
    <symbol viewBox="0 0 40 40" id="github">
        <path fill-rule="evenodd" clip-rule="evenodd"
            d="M20 0C8.95 0 0 8.95 0 20C0 28.85 5.725 36.325 13.675 38.975C14.675 39.15 15.05 38.55 15.05 38.025C15.05 37.55 15.025 35.975 15.025 34.3C10 35.225 8.7 33.075 8.3 31.95C8.075 31.375 7.1 29.6 6.25 29.125C5.55 28.75 4.55 27.825 6.225 27.8C7.8 27.775 8.925 29.25 9.3 29.85C11.1 32.875 13.975 32.025 15.125 31.5C15.3 30.2 15.825 29.325 16.4 28.825C11.95 28.325 7.3 26.6 7.3 18.95C7.3 16.775 8.075 14.975 9.35 13.575C9.15 13.075 8.45 11.025 9.55 8.275C9.55 8.275 11.225 7.75 15.05 10.325C16.65 9.875 18.35 9.65 20.05 9.65C21.75 9.65 23.45 9.875 25.05 10.325C28.875 7.725 30.55 8.275 30.55 8.275C31.65 11.025 30.95 13.075 30.75 13.575C32.025 14.975 32.8 16.75 32.8 18.95C32.8 26.625 28.125 28.325 23.675 28.825C24.4 29.45 25.025 30.65 25.025 32.525C25.025 35.2 25 37.35 25 38.025C25 38.55 25.375 39.175 26.375 38.975C34.275 36.325 40 28.825 40 20C40 8.95 31.05 0 20 0Z" />
    </symbol>
    <symbol viewBox="0 0 40 40" id="phone">
        <path fill-rule="evenodd" clip-rule="evenodd"
            d="M11 18C13.3333 22.6667 17.3333 26.5 22 29L25.6667 25.3333C26.1667 24.8333 26.8333 24.6667 27.3333 25C29.1667 25.6667 31.1667 26 33.3333 26C34.3333 26 35 26.6667 35 27.6667V33.3333C35 34.3333 34.3333 35 33.3333 35C17.6667 35 5 22.3333 5 6.66667C5 5.66667 5.66667 5 6.66667 5H12.5C13.5 5 14.1667 5.66667 14.1667 6.66667C14.1667 8.66667 14.5 10.6667 15.1667 12.6667C15.3333 13.1667 15.1667 13.8333 14.8333 14.3333L11 18Z" />
    </symbol>
</svg>