<svg width="129" height="129" viewBox="0 0 129 129" fill="none" xmlns="http://www.w3.org/2000/svg">
<path d="M121.139 77.1771L113.867 75.3246L114.14 74.2528L118.78 75.4349C118.97 75.4833 119.167 75.5385 119.373 75.6005C119.577 75.6716 119.776 75.7415 119.97 75.8103L119.98 75.7696L114.738 71.9058L114.994 70.9019L121.428 70.0852L121.439 70.0445C121.235 70.0119 121.029 69.9691 120.821 69.9161C120.611 69.8721 120.397 69.8225 120.18 69.7672L115.581 68.5955L115.854 67.5238L123.126 69.3763L122.722 70.9636L116.29 71.7667L121.543 75.5898L121.139 77.1771Z" fill="black"/>
<path d="M114.13 86.5104C113.565 86.2434 113.099 85.9304 112.731 85.5712C112.369 85.2245 112.101 84.8402 111.929 84.4182C111.753 84.0047 111.678 83.5617 111.705 83.0893C111.736 82.6294 111.865 82.1588 112.093 81.6778C112.304 81.2305 112.575 80.8528 112.906 80.5447C113.246 80.2406 113.633 80.0211 114.069 79.886C114.504 79.7509 114.975 79.7049 115.481 79.7477C115.992 79.803 116.53 79.9642 117.095 80.2312C117.846 80.5858 118.419 81.0113 118.815 81.5076C119.218 82.0078 119.444 82.558 119.491 83.1582C119.546 83.7623 119.42 84.3893 119.114 85.0392C118.823 85.6553 118.428 86.1297 117.931 86.4624C117.437 86.8075 116.867 86.9874 116.221 87.0019C115.578 87.0289 114.881 86.8651 114.13 86.5104ZM116.551 81.3832C116.019 81.1322 115.523 80.9805 115.063 80.9282C114.607 80.8884 114.204 80.9664 113.853 81.1622C113.503 81.3579 113.22 81.6837 113.005 82.1394C112.79 82.5952 112.718 83.0206 112.789 83.4156C112.861 83.8106 113.059 84.1673 113.383 84.4857C113.712 84.8164 114.143 85.1073 114.674 85.3584C115.214 85.6134 115.708 85.7589 116.156 85.7947C116.603 85.8306 116.998 85.7486 117.34 85.5488C117.687 85.3615 117.969 85.0357 118.189 84.5716C118.515 83.8795 118.525 83.2697 118.216 82.7423C117.908 82.2148 117.353 81.7618 116.551 81.3832Z" fill="black"/>
<path d="M114.91 99.0936C114.554 98.7889 114.306 98.4639 114.165 98.1187C114.018 97.7811 113.99 97.4147 114.081 97.0194C114.173 96.6242 114.394 96.1851 114.745 95.702C115.102 95.2114 115.455 94.8618 115.802 94.6532C116.145 94.4522 116.49 94.3744 116.838 94.4197C117.193 94.4705 117.575 94.6208 117.981 94.8706L117.306 95.799C116.871 95.5403 116.519 95.4455 116.249 95.5148C115.981 95.5971 115.705 95.8345 115.419 96.227C115.167 96.5742 115.041 96.8981 115.042 97.1986C115.044 97.5122 115.228 97.8306 115.593 98.1539L114.91 99.0936ZM111.585 90.5984C111.517 90.549 111.421 90.4739 111.299 90.373C111.178 90.2851 111.049 90.1853 110.911 90.0734C110.78 89.967 110.654 89.8634 110.531 89.7625C110.416 89.6671 110.323 89.5882 110.253 89.5258L112.973 96.4728L112.083 97.6955L106.015 93.2813L106.69 92.3529L110.268 94.9553C110.389 95.0432 110.547 95.1585 110.743 95.3012C110.934 95.4515 111.121 95.5991 111.304 95.7439C111.495 95.8942 111.637 96.0088 111.729 96.0877L109.004 89.1716L109.902 87.9375L115.97 92.3517L115.287 93.2914L111.585 90.5984Z" fill="black"/>
<path d="M102.032 107.361L103.891 105.766L99.6799 100.857L100.604 100.064L104.816 104.973L106.654 103.396L107.329 104.182L102.707 108.147L102.032 107.361Z" fill="black"/>
<path d="M97.7366 112.37C97.1845 112.702 96.6404 112.866 96.1042 112.861C95.56 112.861 95.0517 112.704 94.5793 112.389C94.1038 112.087 93.6906 111.643 93.3397 111.059L92.9576 110.423L97.362 107.777C96.9087 107.059 96.3906 106.614 95.8079 106.441C95.222 106.281 94.609 106.394 93.9689 106.778C93.5609 107.023 93.2225 107.275 92.9537 107.535C92.6817 107.807 92.421 108.116 92.1715 108.462L91.6164 107.538C91.8579 107.197 92.1194 106.898 92.401 106.642C92.6778 106.378 93.0362 106.113 93.4762 105.849C94.0843 105.484 94.6988 105.283 95.3199 105.248C95.9329 105.217 96.518 105.367 97.0752 105.696C97.6292 106.038 98.1201 106.565 98.5479 107.277C98.9708 107.982 99.2176 108.655 99.2884 109.299C99.3512 109.947 99.2522 110.534 98.9916 111.061C98.723 111.593 98.3046 112.029 97.7366 112.37ZM97.2295 111.499C97.7336 111.196 98.0351 110.792 98.1341 110.286C98.2298 109.793 98.1327 109.242 97.8427 108.632L94.5664 110.6C94.7874 110.968 95.0357 111.255 95.3111 111.459C95.5865 111.664 95.8859 111.773 96.2093 111.785C96.5294 111.811 96.8695 111.715 97.2295 111.499Z" fill="black"/>
<path d="M83.7945 111.226L84.9643 110.797L87.1959 116.883L89.2727 116.121C88.9522 114.976 88.7131 113.985 88.5554 113.149C88.4008 112.321 88.3344 111.624 88.356 111.06C88.3776 110.495 88.4868 110.047 88.6837 109.717C88.8806 109.386 89.1674 109.152 89.5442 109.013C89.6581 108.972 89.7753 108.939 89.8956 108.914C90.004 108.885 90.0996 108.874 90.1826 108.884L90.5007 109.751C90.4417 109.753 90.3799 109.761 90.3153 109.774C90.2508 109.788 90.1878 109.806 90.1265 109.829C89.9337 109.899 89.7874 110.043 89.6875 110.258C89.5876 110.474 89.5358 110.766 89.532 111.135C89.5194 111.508 89.5505 111.959 89.6253 112.488C89.7033 113.026 89.8266 113.647 89.9951 114.35C90.1637 115.054 90.3731 115.842 90.6235 116.715L86.3779 118.271L83.7945 111.226Z" fill="black"/>
<path d="M78.8396 120.994C78.2061 121.11 77.6393 121.071 77.139 120.878C76.6296 120.686 76.2094 120.36 75.8784 119.899C75.5398 119.448 75.3093 118.888 75.1868 118.218L75.0533 117.488L80.1076 116.564C79.9365 115.732 79.6086 115.132 79.1241 114.765C78.6321 114.409 78.0188 114.298 77.2843 114.433C76.8161 114.518 76.4105 114.635 76.0675 114.783C75.717 114.942 75.3641 115.14 75.0087 115.375L74.8148 114.315C75.1611 114.081 75.5111 113.893 75.8649 113.753C76.217 113.603 76.6456 113.482 77.1505 113.39C77.8483 113.262 78.4941 113.291 79.0878 113.477C79.6723 113.664 80.1673 114.01 80.5726 114.515C80.9705 115.03 81.2441 115.697 81.3935 116.514C81.5412 117.322 81.5348 118.039 81.3743 118.666C81.2046 119.295 80.905 119.81 80.4755 120.211C80.0368 120.614 79.4915 120.875 78.8396 120.994ZM78.6721 120C79.2505 119.894 79.6752 119.622 79.9461 119.183C80.2095 118.756 80.3129 118.206 80.2563 117.533L76.4966 118.22C76.5738 118.642 76.7052 118.998 76.8908 119.287C77.0764 119.575 77.3183 119.783 77.6164 119.908C77.9071 120.045 78.259 120.075 78.6721 120Z" fill="black"/>
<path d="M67.719 122.427L67.683 121.392L71.027 121.275L70.8024 114.811L72.0336 114.769L72.2942 122.268L67.719 122.427Z" fill="black"/>
<path d="M59.4813 122.584C58.5688 122.438 57.8867 122.004 57.4349 121.28C56.9739 120.554 56.8453 119.551 57.0493 118.27C57.1828 117.431 57.4248 116.742 57.7753 116.202C58.1151 115.67 58.539 115.293 59.0468 115.072C59.5439 114.858 60.1012 114.8 60.7188 114.899C61.0967 114.959 61.4251 115.063 61.7039 115.211C61.9827 115.36 62.2156 115.529 62.4027 115.719C62.5791 115.918 62.7256 116.125 62.8423 116.342L62.9252 116.355C62.9317 116.196 62.9448 115.995 62.9645 115.752C62.9842 115.51 63.008 115.301 63.0359 115.126L63.5201 112.084L64.7368 112.278L63.029 123.006L62.0335 122.848L62.0282 121.812L61.9729 121.804C61.7917 121.992 61.5858 122.158 61.3551 122.301C61.1152 122.442 60.8444 122.541 60.5425 122.597C60.2314 122.651 59.8777 122.647 59.4813 122.584ZM59.8654 121.596C60.3632 121.675 60.7795 121.642 61.1145 121.497C61.448 121.361 61.714 121.115 61.9124 120.759C62.1108 120.403 62.2608 119.936 62.3625 119.356L62.3999 119.121C62.4967 118.513 62.5144 117.987 62.4528 117.542C62.3913 117.097 62.226 116.74 61.9571 116.471C61.6789 116.2 61.2725 116.022 60.7379 115.936C60.2862 115.865 59.8977 115.93 59.5724 116.134C59.2378 116.336 58.9677 116.638 58.7619 117.04C58.5455 117.449 58.3932 117.931 58.3052 118.484C58.1702 119.332 58.2283 120.036 58.4794 120.595C58.7213 121.154 59.1833 121.487 59.8654 121.596Z" fill="black"/>
<path d="M49.5811 120.828C48.7143 120.535 48.1372 120.129 47.8497 119.609C47.5622 119.088 47.5586 118.412 47.8389 117.581L49.4711 112.739L50.3202 113.025L50.2059 114.109L50.2589 114.127C50.5488 113.939 50.8341 113.794 51.1149 113.692C51.3838 113.595 51.6731 113.555 51.983 113.571C52.284 113.583 52.6335 113.657 53.0315 113.791C53.456 113.934 53.8154 114.139 54.1097 114.406C54.3951 114.669 54.5829 114.989 54.6731 115.364C54.7604 115.748 54.7235 116.179 54.5625 116.656C54.324 117.364 53.862 117.814 53.1767 118.006C52.4883 118.208 51.5588 118.131 50.3883 117.776L49.1676 117.408L49.0245 117.833C48.8248 118.426 48.8144 118.88 48.9933 119.196C49.1723 119.513 49.4962 119.75 49.9649 119.908C50.3364 120.033 50.7095 120.095 51.0844 120.093C51.4563 120.101 51.812 120.083 52.1515 120.039L52.2146 121.036C51.8484 121.099 51.4336 121.117 50.9704 121.089C50.5041 121.07 50.041 120.983 49.5811 120.828ZM50.5151 116.917C51.4115 117.18 52.0739 117.246 52.5023 117.114C52.9219 116.98 53.2077 116.687 53.3597 116.236C53.4939 115.838 53.4729 115.506 53.2967 115.24C53.1116 114.971 52.829 114.772 52.4487 114.644C51.8472 114.441 51.2924 114.436 50.7841 114.629C50.2728 114.831 49.9009 115.277 49.6683 115.967L49.4537 116.604L50.5151 116.917Z" fill="black"/>
<path d="M35.2228 114.611L39.2045 108.251L40.142 108.837L37.6014 112.896C37.4974 113.062 37.3845 113.234 37.2627 113.411C37.133 113.583 37.0057 113.751 36.8809 113.915L36.9165 113.937L42.1949 110.123L43.073 110.672L41.8886 117.05L41.9242 117.072C42.0174 116.888 42.1209 116.705 42.2348 116.523C42.3408 116.336 42.4532 116.148 42.5721 115.958L45.0903 111.935L46.0278 112.522L42.0461 118.883L40.6577 118.013L41.854 111.643L36.6112 115.48L35.2228 114.611Z" fill="black"/>
<path d="M24.0666 106.154L23.1407 105.18L27.9675 105.015L28.3968 99.8172L29.3805 100.852L28.9543 105.931L31.7145 103.308L32.5632 104.201L27.1239 109.371L26.2752 108.478L28.9137 105.97L24.0666 106.154Z" fill="black"/>
<path d="M18.448 100.194C17.9373 99.4352 17.726 98.7618 17.8141 98.1738C17.9021 97.5858 18.3101 97.0469 19.038 96.5571L23.2775 93.7043L23.7777 94.4476L23.0278 95.2391L23.0591 95.2856C23.4035 95.3125 23.7183 95.3707 24.0034 95.4601C24.2756 95.5469 24.5299 95.6908 24.7663 95.8917C24.9976 96.0848 25.2304 96.3556 25.4649 96.7041C25.715 97.0758 25.8758 97.4569 25.9474 97.8475C26.0138 98.2303 25.9688 98.5981 25.8124 98.9508C25.6483 99.3087 25.3571 99.6284 24.939 99.9098C24.3195 100.327 23.6792 100.403 23.0179 100.139C22.349 99.8808 21.6577 99.2548 20.9441 98.2613L20.198 97.2277L19.8263 97.4778C19.3075 97.827 19.023 98.1815 18.9728 98.5416C18.9226 98.9016 19.0355 99.2868 19.3117 99.6972C19.5306 100.022 19.7893 100.298 20.088 100.525C20.3789 100.757 20.6723 100.958 20.9681 101.131L20.4126 101.96C20.0831 101.788 19.7429 101.55 19.3922 101.246C19.0337 100.947 18.7189 100.597 18.448 100.194ZM21.5666 97.6567C22.1187 98.4102 22.6047 98.865 23.0248 99.0211C23.4396 99.1694 23.8444 99.1107 24.2394 98.845C24.5878 98.6105 24.773 98.334 24.7949 98.0155C24.8116 97.6893 24.708 97.3597 24.4839 97.0267C24.1296 96.5002 23.6919 96.1591 23.1709 96.0034C22.6422 95.853 22.0758 95.981 21.4719 96.3874L20.9143 96.7626L21.5666 97.6567Z" fill="black"/>
<path d="M13.7116 93.2892L16.5824 92.0622L14.9814 88.316L12.1106 89.5429L11.6264 88.4101L18.5267 85.4611L19.0108 86.5939L15.934 87.9089L17.5351 91.6551L20.6119 90.3402L21.096 91.473L14.1958 94.422L13.7116 93.2892Z" fill="black"/>
<path d="M8.87136 81.868C8.65906 80.9783 8.69719 80.2735 8.98574 79.7537C9.2743 79.2338 9.84526 78.8721 10.6986 78.6685L15.6691 77.4824L15.8771 78.3539L14.8974 78.8324L14.9104 78.8869C15.2235 79.0328 15.4979 79.1976 15.7336 79.3813C15.9581 79.558 16.1458 79.7819 16.2969 80.0529C16.4457 80.3148 16.5689 80.6501 16.6664 81.0586C16.7704 81.4943 16.7874 81.9077 16.7176 82.2986C16.6456 82.6804 16.4745 83.009 16.2044 83.2846C15.9253 83.5623 15.5406 83.7597 15.0503 83.8766C14.3241 84.0499 13.6975 83.8972 13.1706 83.4184C12.6347 82.9418 12.2067 82.1132 11.8866 80.9326L11.55 79.7031L11.1143 79.8071C10.506 79.9522 10.1153 80.1846 9.94206 80.5042C9.76885 80.8238 9.73965 81.2242 9.85446 81.7053C9.94545 82.0866 10.0911 82.4357 10.2914 82.7525C10.4827 83.0715 10.6867 83.3634 10.9035 83.6284L10.0924 84.2105C9.84412 83.9339 9.60896 83.5918 9.38695 83.1842C9.15587 82.7788 8.98401 82.34 8.87136 81.868ZM12.6815 80.5845C12.9345 81.4837 13.2303 82.08 13.569 82.3734C13.9055 82.6577 14.3052 82.7447 14.7682 82.6342C15.1768 82.5367 15.4471 82.3426 15.5793 82.052C15.7093 81.7523 15.7277 81.4073 15.6345 81.0169C15.4872 80.3996 15.1969 79.9268 14.7635 79.5984C14.321 79.2722 13.7457 79.1935 13.0376 79.3625L12.384 79.5185L12.6815 80.5845Z" fill="black"/>
<path d="M14.1517 68.9617L14.2093 70.2064L7.7343 70.5065L7.83669 72.7161C9.02508 72.7545 10.0421 72.8241 10.8876 72.9251C11.7239 73.0265 12.408 73.1723 12.9401 73.3625C13.4721 73.5528 13.8663 73.7915 14.1225 74.0786C14.3787 74.3657 14.5161 74.7097 14.5347 75.1106C14.5403 75.2318 14.5366 75.3534 14.5236 75.4755C14.5195 75.5878 14.5005 75.6821 14.4666 75.7584L13.5436 75.8012C13.5597 75.7444 13.5709 75.6832 13.5772 75.6175C13.5835 75.5518 13.5851 75.4863 13.5821 75.421C13.5726 75.2159 13.48 75.0333 13.3044 74.8733C13.1288 74.7133 12.8655 74.576 12.5145 74.4614C12.1631 74.3376 11.7237 74.2318 11.1964 74.1441C10.6598 74.0568 10.0306 73.9879 9.3088 73.9373C8.58702 73.8866 7.77243 73.8496 6.86504 73.8263L6.65571 69.3091L14.1517 68.9617Z" fill="black"/>
<path d="M8.14164 50.6147L15.3693 52.6323L15.0719 53.6976L10.4603 52.4102C10.2715 52.3575 10.075 52.2978 9.8707 52.2311C9.66896 52.1554 9.47171 52.081 9.27895 52.0078L9.26766 52.0483L14.4207 56.0304L14.1422 57.0283L7.69046 57.6983L7.67917 57.7387C7.88196 57.7759 8.08674 57.8234 8.2935 57.8811C8.50277 57.9299 8.71528 57.9843 8.93103 58.0446L13.5023 59.3206L13.2049 60.3859L5.97722 58.3683L6.41763 56.7906L12.8656 56.1341L7.70123 52.1924L8.14164 50.6147Z" fill="black"/>
<path d="M15.3264 41.4813C15.8858 41.7609 16.345 42.0842 16.7041 42.4515C17.059 42.8062 17.3178 43.1964 17.4807 43.6221C17.6478 44.0394 17.7126 44.4839 17.6752 44.9556C17.6335 45.4148 17.4938 45.8823 17.256 46.3582C17.0349 46.8007 16.7553 47.1722 16.4173 47.4728C16.071 47.7693 15.6786 47.9802 15.2404 48.1055C14.8022 48.2308 14.3305 48.2664 13.8255 48.2123C13.3162 48.1456 12.7819 47.9725 12.2225 47.693C11.4794 47.3217 10.9158 46.8836 10.5317 46.3786C10.1392 45.8695 9.92622 45.3144 9.89268 44.7134C9.85079 44.1081 9.99047 43.4841 10.3117 42.8412C10.6163 42.2317 11.021 41.7662 11.526 41.4447C12.0268 41.1107 12.6007 40.9436 13.2476 40.9434C13.8904 40.9307 14.5834 41.11 15.3264 41.4813ZM12.792 46.5534C13.318 46.8162 13.8105 46.9789 14.2697 47.0414C14.7247 47.0913 15.1295 47.0224 15.4843 46.8344C15.839 46.6465 16.129 46.3271 16.3543 45.8763C16.5796 45.4255 16.6609 45.0018 16.5982 44.6053C16.5355 44.2087 16.3455 43.8477 16.0282 43.5222C15.7067 43.1842 15.2829 42.8838 14.757 42.621C14.2226 42.354 13.7321 42.1976 13.2855 42.1518C12.8389 42.106 12.4424 42.1791 12.096 42.3712C11.7454 42.5508 11.4554 42.8701 11.2259 43.3293C10.8838 44.014 10.861 44.6234 11.1575 45.1576C11.454 45.6918 11.9988 46.157 12.792 46.5534Z" fill="black"/>
<path d="M14.9093 28.7358C15.2569 29.0495 15.4968 29.3807 15.6293 29.7294C15.7674 30.0706 15.7858 30.4377 15.6845 30.8304C15.5831 31.2232 15.3506 31.6566 14.987 32.1305C14.6177 32.6118 14.2565 32.9523 13.9034 33.1519C13.5559 33.3441 13.2089 33.4131 12.8622 33.3589C12.5082 33.299 12.131 33.139 11.7306 32.8789L12.4294 31.9681C12.8577 32.2379 13.2075 32.3416 13.4789 32.2792C13.7485 32.2037 14.0311 31.9735 14.3265 31.5884C14.5878 31.2478 14.722 30.9273 14.729 30.6268C14.7343 30.3132 14.5587 29.9902 14.202 29.6578L14.9093 28.7358ZM18.0161 37.3131C18.0827 37.3643 18.1762 37.4418 18.2964 37.5458C18.4149 37.6367 18.5416 37.7398 18.6766 37.8552C18.8042 37.9649 18.9281 38.0717 19.0483 38.1757C19.1611 38.274 19.2517 38.3552 19.3201 38.4195L16.7786 31.4052L17.699 30.2056L23.6526 34.7734L22.9538 35.6842L19.4439 32.9913C19.3254 32.9004 19.1699 32.7811 18.9773 32.6334C18.7905 32.4782 18.6073 32.326 18.4279 32.1765C18.2411 32.0214 18.1023 31.9032 18.0118 31.822L20.5591 38.8054L19.6302 40.0161L13.6766 35.4484L14.384 34.5264L18.0161 37.3131Z" fill="black"/>
<path d="M27.8172 20.906L25.9233 22.4602L30.0266 27.46L29.0851 28.2327L24.9818 23.2329L23.1096 24.7695L22.4524 23.9686L27.16 20.1051L27.8172 20.906Z" fill="black"/>
<path d="M32.2209 15.9662C32.7802 15.6469 33.3278 15.4954 33.8638 15.5117C34.4079 15.5235 34.9126 15.6921 35.3779 16.0175C35.8466 16.3302 36.2499 16.7824 36.5878 17.3741L36.9557 18.0184L32.4939 20.5662C32.9313 21.2945 33.4394 21.7514 34.0182 21.9368C34.6004 22.1094 35.2157 22.0107 35.8641 21.6404C36.2775 21.4044 36.6214 21.1596 36.8958 20.9062C37.1738 20.64 37.4413 20.3368 37.6984 19.9965L38.2329 20.9326C37.9839 21.2683 37.7158 21.5611 37.4287 21.811C37.1461 22.0691 36.782 22.3254 36.3362 22.58C35.7202 22.9317 35.1014 23.1185 34.4797 23.1403C33.8662 23.1575 33.2845 22.9952 32.7347 22.6536C32.1884 22.2992 31.7093 21.7613 31.2974 21.04C30.8901 20.3267 30.6582 19.6477 30.6016 19.0028C30.5532 18.3534 30.6651 17.7682 30.9373 17.2474C31.2176 16.7219 31.6455 16.2948 32.2209 15.9662ZM32.7086 16.8485C32.198 17.1401 31.8876 17.5376 31.7775 18.0412C31.6709 18.532 31.7558 19.0854 32.0323 19.7013L35.3513 17.8061C35.1384 17.4332 34.8965 17.1414 34.6257 16.9307C34.3549 16.7199 34.058 16.6046 33.735 16.5849C33.4155 16.5523 33.0734 16.6402 32.7086 16.8485Z" fill="black"/>
<path d="M46.0756 17.4135L44.8964 17.8159L42.8027 11.6814L40.7093 12.3958C41.0038 13.5478 41.2205 14.5439 41.3593 15.3841C41.4951 16.2154 41.5458 16.9131 41.5115 17.4771C41.4772 18.0411 41.3579 18.4861 41.1536 18.8123C40.9493 19.1384 40.6572 19.3663 40.2774 19.4959C40.1626 19.5351 40.0448 19.5654 39.9239 19.587C39.8149 19.6143 39.719 19.6224 39.6363 19.6112L39.3378 18.7367C39.3969 18.7363 39.4588 18.7299 39.5237 18.7176C39.5885 18.7054 39.6518 18.6887 39.7137 18.6676C39.908 18.6013 40.0575 18.4615 40.1623 18.2482C40.267 18.035 40.3254 17.7438 40.3375 17.3748C40.3585 17.0027 40.3376 16.5513 40.2747 16.0205C40.2089 15.4808 40.0997 14.8573 39.947 14.1501C39.7944 13.4428 39.6028 12.6502 39.3722 11.7723L43.6518 10.3117L46.0756 17.4135Z" fill="black"/>
<path d="M51.3778 7.70489C52.0138 7.60365 52.5797 7.65535 53.0753 7.85997C53.5802 8.06313 53.9928 8.39911 54.3132 8.86792C54.6413 9.32604 54.8589 9.89153 54.966 10.5644L55.0826 11.2972L50.0085 12.1049C50.1604 12.9407 50.4744 13.5475 50.9504 13.9254C51.4341 14.2926 52.0447 14.4175 52.7821 14.3001C53.2522 14.2253 53.6603 14.1178 54.0066 13.9776C54.3606 13.8268 54.718 13.6376 55.0787 13.4101L55.2482 14.4746C54.8967 14.7007 54.5424 14.88 54.1855 15.0124C53.83 15.154 53.3988 15.2652 52.8918 15.3459C52.1913 15.4574 51.5464 15.4136 50.9571 15.2144C50.377 15.0138 49.8901 14.6565 49.4965 14.1427C49.1105 13.6182 48.8523 12.9457 48.7217 12.1254C48.5926 11.3143 48.6155 10.5971 48.7904 9.97385C48.9744 9.34914 49.2858 8.84121 49.7244 8.45007C50.1723 8.05745 50.7234 7.80906 51.3778 7.70489ZM51.5225 8.70255C50.9418 8.79499 50.511 9.0573 50.2301 9.4895C49.957 9.91101 49.841 10.4587 49.8821 11.1326L53.6566 10.5318C53.5891 10.1078 53.4659 9.74941 53.2869 9.45656C53.108 9.16371 52.871 8.951 52.5758 8.81842C52.2884 8.67515 51.9373 8.63653 51.5225 8.70255Z" fill="black"/>
<path d="M62.5188 6.51429L62.5308 7.55022L59.185 7.58896L59.2599 14.0565L58.028 14.0708L57.9411 6.5673L62.5188 6.51429Z" fill="black"/>
<path d="M70.7945 6.5339C71.7035 6.70007 72.3755 7.15027 72.8105 7.88448C73.2547 8.62037 73.3602 9.6264 73.1269 10.9026C72.9741 11.7381 72.7164 12.4215 72.3535 12.9529C72.0016 13.4768 71.5692 13.8437 71.0564 14.0536C70.5545 14.256 69.996 14.3009 69.3809 14.1885C69.0044 14.1196 68.6786 14.0079 68.4032 13.8532C68.1279 13.6985 67.8989 13.5238 67.7163 13.3291C67.5445 13.1269 67.4028 12.916 67.2912 12.6963L67.2085 12.6812C67.1984 12.8407 67.1806 13.0414 67.1553 13.2835C67.1301 13.5255 67.1015 13.7338 67.0696 13.9082L66.5157 16.938L65.3038 16.7165L67.2576 6.02958L68.2491 6.21086L68.2306 7.24641L68.2857 7.25648C68.4712 7.07217 68.6809 6.91126 68.9148 6.77375C69.1578 6.63791 69.4309 6.54551 69.734 6.49656C70.0462 6.44928 70.3997 6.46172 70.7945 6.5339ZM70.3879 7.51272C69.8921 7.42208 69.4751 7.44547 69.1369 7.58288C68.8003 7.71111 68.5288 7.95086 68.3222 8.30211C68.1157 8.65336 67.955 9.11735 67.84 9.69408L67.7972 9.9282C67.6864 10.5342 67.6567 11.0601 67.708 11.5059C67.7594 11.9517 67.9164 12.3125 68.1791 12.5882C68.4509 12.8657 68.8531 13.053 69.3856 13.1504C69.8355 13.2326 70.2254 13.1758 70.5554 12.98C70.8945 12.7858 71.1715 12.4901 71.3864 12.093C71.6122 11.6883 71.7755 11.2106 71.8762 10.6597C72.0306 9.81503 71.9887 9.11 71.7505 8.54461C71.5215 7.9809 71.0673 7.63693 70.3879 7.51272Z" fill="black"/>
<path d="M80.4217 8.42568C81.2816 8.73734 81.8494 9.15656 82.1251 9.68335C82.4007 10.2101 82.3891 10.8859 82.0901 11.7108L80.349 16.515L79.5066 16.2097L79.6454 15.1283L79.5927 15.1092C79.2987 15.2905 79.0102 15.4292 78.7272 15.5252C78.4562 15.6156 78.166 15.6494 77.8565 15.6266C77.5559 15.6069 77.2081 15.5256 76.8133 15.3825C76.3921 15.2298 76.0374 15.0169 75.7493 14.7437C75.4699 14.4737 75.2893 14.1501 75.2076 13.773C75.129 13.3872 75.1756 12.9573 75.3473 12.4835C75.6018 11.7815 76.0738 11.342 76.7633 11.1651C77.4561 10.9793 78.3835 11.0772 79.5458 11.4587L80.7578 11.8533L80.9105 11.4322C81.1236 10.8442 81.1442 10.3901 80.9724 10.0697C80.8006 9.74936 80.4822 9.5049 80.0171 9.33634C79.6486 9.20277 79.2769 9.1326 78.9022 9.12583C78.5306 9.11028 78.1745 9.12023 77.8341 9.15568L77.7935 8.15817C78.1611 8.10276 78.5761 8.09434 79.0386 8.13292C79.5044 8.16272 79.9654 8.26031 80.4217 8.42568ZM79.3996 12.3141C78.5094 12.0312 77.8486 11.9506 77.4174 12.0722C76.9949 12.1971 76.7025 12.4832 76.5403 12.9308C76.3972 13.3256 76.4107 13.6581 76.5809 13.9283C76.7598 14.2016 77.0379 14.4066 77.4152 14.5434C78.0119 14.7596 78.5665 14.777 79.079 14.5954C79.5948 14.4051 79.9767 13.9677 80.2247 13.2833L80.4537 12.6515L79.3996 12.3141Z" fill="black"/>
<path d="M94.7647 14.9739L90.6439 21.2452L89.7196 20.6378L92.3489 16.6364C92.4565 16.4726 92.5732 16.3035 92.6989 16.1292C92.8323 15.9601 92.9633 15.7948 93.0916 15.6335L93.0565 15.6104L87.6955 19.3078L86.8297 18.7389L88.1541 12.3892L88.119 12.3661C88.0218 12.548 87.9143 12.7286 87.7964 12.908C87.6864 13.0925 87.5698 13.2784 87.4468 13.4656L84.8406 17.432L83.9163 16.8246L88.037 10.5533L89.4059 11.4528L88.0698 17.7949L93.3957 14.0744L94.7647 14.9739Z" fill="black"/>
<path d="M105.764 23.6613L106.668 24.6555L101.839 24.7146L101.297 29.9019L100.336 28.8456L100.873 23.7769L98.0558 26.3394L97.2267 25.4281L102.778 20.3785L103.607 21.2898L100.914 23.7392L105.764 23.6613Z" fill="black"/>
<path d="M111.281 29.7546C111.775 30.5245 111.972 31.2024 111.871 31.7883C111.77 32.3742 111.35 32.904 110.611 33.3777L106.31 36.1366L105.826 35.3824L106.594 34.6077L106.563 34.5605C106.22 34.526 105.906 34.4609 105.623 34.3653C105.353 34.2725 105.102 34.123 104.87 33.917C104.643 33.7188 104.416 33.443 104.189 33.0894C103.947 32.7123 103.795 32.3278 103.732 31.9357C103.674 31.5515 103.727 31.1848 103.891 30.8356C104.063 30.4814 104.361 30.1682 104.786 29.8961C105.414 29.4929 106.056 29.4305 106.711 29.7087C107.374 29.982 108.052 30.6231 108.743 31.632L109.466 32.6817L109.843 32.4398C110.37 32.1022 110.662 31.754 110.72 31.3951C110.778 31.0363 110.674 30.6487 110.407 30.2323C110.195 29.9024 109.943 29.6209 109.649 29.3879C109.363 29.1498 109.074 28.9414 108.782 28.7628L109.356 27.9458C109.682 28.125 110.016 28.3704 110.36 28.682C110.712 28.9885 111.019 29.3461 111.281 29.7546ZM108.108 32.2228C107.572 31.4573 107.096 30.9919 106.68 30.8266C106.268 30.6692 105.862 30.719 105.462 30.976C105.108 31.2027 104.917 31.4751 104.888 31.793C104.864 32.1188 104.96 32.4506 105.177 32.7884C105.52 33.3227 105.95 33.6733 106.467 33.8404C106.993 34.0024 107.562 33.8869 108.174 33.4938L108.74 33.131L108.108 32.2228Z" fill="black"/>
<path d="M115.879 36.7497L112.982 37.9119L114.498 41.6931L117.396 40.5309L117.854 41.6744L110.89 44.4679L110.431 43.3244L113.537 42.0788L112.02 38.2976L108.915 39.5432L108.456 38.3998L115.421 35.6063L115.879 36.7497Z" fill="black"/>
<path d="M120.496 48.3434C120.688 49.2377 120.634 49.9414 120.334 50.4545C120.033 50.9676 119.454 51.3162 118.597 51.5003L113.6 52.5724L113.412 51.6963L114.403 51.2404L114.391 51.1856C114.081 51.0325 113.811 50.8615 113.579 50.6725C113.359 50.4907 113.176 50.2626 113.031 49.9882C112.889 49.723 112.773 49.385 112.685 48.9744C112.591 48.5363 112.583 48.1227 112.662 47.7335C112.743 47.3535 112.921 47.0288 113.198 46.7595C113.483 46.4882 113.872 46.2997 114.365 46.194C115.095 46.0373 115.718 46.2043 116.234 46.695C116.759 47.1838 117.168 48.022 117.461 49.2096L117.769 50.4464L118.207 50.3524C118.818 50.2212 119.214 49.9978 119.395 49.6823C119.575 49.3667 119.614 48.9671 119.51 48.4835C119.428 48.1002 119.29 47.7479 119.097 47.4266C118.913 47.1033 118.716 46.8068 118.505 46.537L119.329 45.9735C119.571 46.2557 119.798 46.6031 120.011 47.0156C120.233 47.4263 120.395 47.8688 120.496 48.3434ZM116.658 49.5393C116.426 48.6346 116.144 48.0317 115.812 47.7307C115.482 47.4387 115.084 47.3427 114.619 47.4426C114.208 47.5307 113.933 47.7185 113.795 48.006C113.658 48.3026 113.631 48.6472 113.716 49.0396C113.849 49.6601 114.128 50.1395 114.554 50.4777C114.989 50.8139 115.562 50.9057 116.274 50.7529L116.931 50.6119L116.658 49.5393Z" fill="black"/>
<path d="M114.95 61.4092L114.926 60.1634L121.407 60.0383L121.364 57.8267C120.177 57.7563 119.162 57.6592 118.32 57.5354C117.487 57.4115 116.807 57.2472 116.28 57.0427C115.753 56.8381 115.366 56.5889 115.117 56.295C114.869 56.0011 114.741 55.6535 114.733 55.2522C114.731 55.1309 114.738 55.0094 114.754 54.8877C114.761 54.7756 114.783 54.6818 114.819 54.6064L115.742 54.5886C115.725 54.6449 115.712 54.7059 115.704 54.7714C115.696 54.8369 115.693 54.9023 115.694 54.9676C115.698 55.1729 115.785 55.3579 115.957 55.5226C116.128 55.6874 116.387 55.8317 116.735 55.9557C117.083 56.089 117.519 56.2066 118.044 56.3085C118.578 56.4102 119.205 56.4961 119.925 56.5662C120.646 56.6364 121.459 56.6953 122.365 56.7432L122.453 61.2643L114.95 61.4092Z" fill="black"/>
</svg>
