<svg width="40" height="40" viewBox="0 0 40 40" fill="none" xmlns="http://www.w3.org/2000/svg">
<path fill-rule="evenodd" clip-rule="evenodd" d="M11 18C13.3333 22.6667 17.3333 26.5 22 29L25.6667 25.3333C26.1667 24.8333 26.8333 24.6667 27.3333 25C29.1667 25.6667 31.1667 26 33.3333 26C34.3333 26 35 26.6667 35 27.6667V33.3333C35 34.3333 34.3333 35 33.3333 35C17.6667 35 5 22.3333 5 6.66667C5 5.66667 5.66667 5 6.66667 5H12.5C13.5 5 14.1667 5.66667 14.1667 6.66667C14.1667 8.66667 14.5 10.6667 15.1667 12.6667C15.3333 13.1667 15.1667 13.8333 14.8333 14.3333L11 18Z" fill="black"/>
</svg>
