<svg width="110" height="110" viewBox="0 0 110 110" fill="none" xmlns="http://www.w3.org/2000/svg">
<path d="M93.7419 21.6176L86.6476 101.153L54.7586 110L22.9574 101.165L15.8706 21.6176H93.7419Z" fill="#264DE4"/>
<path d="M80.574 96.088L86.6366 28.1218H54.8062V103.237L80.574 96.088Z" fill="#2965F1"/>
<path d="M32.1169 57.6248L32.9907 67.3808H54.8063V57.6248H32.1169Z" fill="#EBEBEB"/>
<path d="M54.8061 37.8781H54.7724H30.3611L31.2473 47.6343H54.8061V37.8781Z" fill="#EBEBEB"/>
<path d="M54.8063 93.1131V82.9626L54.7636 82.9739L43.9065 80.04L43.2124 72.259H37.9367H33.4263L34.7921 87.5776L54.7615 93.1255L54.8063 93.1131Z" fill="#EBEBEB"/>
<path d="M34.197 0H46.0044V4.94141H39.1346V9.88281H46.0044V14.8242H34.197V0Z" fill="black"/>
<path d="M48.366 0H60.1733V4.29688H53.3036V5.15625H60.1733V15.0391H48.366V10.5273H55.2357V9.66797H48.366V0Z" fill="black"/>
<path d="M62.5347 0H74.342V4.29688H67.4723V5.15625H74.342V15.0391H62.5347V10.5273H69.4044V9.66797H62.5347V0Z" fill="black"/>
<path d="M66.7769 67.3808L65.6453 80.0338L54.7725 82.9707V93.1208L74.7578 87.5776L74.9044 85.9294L77.1952 60.2446L77.4331 57.6248L79.193 37.8781H54.7725V47.6343H68.5093L67.6223 57.6248H54.7725V67.3808H66.7769Z" fill="white"/>
</svg>
