<svg width="110" height="110" viewBox="0 0 110 110" fill="none" xmlns="http://www.w3.org/2000/svg">
<path fill-rule="evenodd" clip-rule="evenodd" d="M54.7701 86.8006C48.3129 86.8006 43.3233 85.8325 40.924 85.2555C39.2832 84.8609 37.9657 84.4527 36.9648 84.0333L40.1648 89.4899L41.4165 106.539C41.4165 108.451 47.5002 110 55.0047 110C62.5092 110 68.5929 108.451 68.5929 106.539L69.584 89.3043L72.6118 84.0173C71.6067 84.4424 70.2774 84.8561 68.616 85.2555C66.2167 85.8325 61.2271 86.8006 54.7701 86.8006ZM72.7157 31.3213C67.9764 31.9819 61.6865 32.3459 55.0047 32.3459C48.3229 32.3459 42.033 31.9819 37.2937 31.3213C34.9461 30.9941 33.0888 30.6081 31.7733 30.1747C31.4595 30.0711 30.9277 29.8944 30.416 29.6129L33.3523 56.5843C33.4887 56.1198 33.6406 55.6558 33.8091 55.1936C34.1538 54.2464 34.5525 53.3202 35.0051 52.4155C35.4579 51.5111 35.9507 50.656 36.4836 49.8506C37.0163 49.0455 37.5835 48.3041 38.1845 47.6266C38.7858 46.9494 39.4025 46.367 40.0358 45.8788C40.6688 45.3912 41.3078 45.0098 41.9529 44.7352C42.5982 44.4605 43.2372 44.3229 43.8703 44.3229C44.5994 44.3229 45.3048 44.5219 45.9862 44.9199C46.6672 45.3176 47.304 45.9619 47.8973 46.8524C48.0334 47.0514 48.1198 47.2526 48.1556 47.4562C48.1919 47.66 48.2096 47.8519 48.2096 48.0317C48.2096 48.458 48.1075 48.7946 47.9033 49.0407C47.699 49.2871 47.4565 49.4101 47.1761 49.4101C46.9193 49.4101 46.681 49.2751 46.4607 49.0053C46.2402 48.7352 45.9939 48.3492 45.7213 47.847C45.4647 47.3922 45.1824 47.0634 44.874 46.8595C44.5654 46.656 44.231 46.554 43.8703 46.554C43.3093 46.554 42.7103 46.7861 42.0733 47.2504C41.436 47.7143 40.805 48.3278 40.1802 49.0904C39.5549 49.8532 38.956 50.7245 38.383 51.7052C37.81 52.6856 37.3029 53.6896 36.8621 54.7174C36.4213 55.7458 36.0712 56.7596 35.8106 57.7588C35.55 58.758 35.4198 59.6556 35.4198 60.4513C35.4198 60.7168 35.4381 60.9894 35.4739 61.2684C35.5102 61.5481 35.578 61.8014 35.6784 62.0289C35.7782 62.2564 35.9147 62.4432 36.0869 62.5896C36.2594 62.7369 36.4776 62.81 36.7419 62.81C37.0386 62.81 37.375 62.7107 37.752 62.5117C38.1284 62.3133 38.5192 62.0523 38.9236 61.7306C39.3284 61.4082 39.7352 61.0437 40.1439 60.636C40.553 60.2289 40.9334 59.8169 41.2858 59.3998C41.6382 58.9833 41.9509 58.5827 42.2232 58.1993C42.4958 57.8156 42.7 57.4816 42.8365 57.1972L43.9544 53.8578C44.0905 53.4981 44.2687 53.2423 44.4893 53.0907C44.7095 52.9391 44.9361 52.8631 45.1686 52.8631C45.2805 52.8631 45.3926 52.8823 45.505 52.92C45.6175 52.9579 45.7173 53.0173 45.8057 53.0975C45.8938 53.1783 45.9639 53.2823 46.0159 53.4104C46.068 53.5381 46.094 53.6874 46.094 53.8578C46.094 54.3126 46.054 54.7386 45.9739 55.1368C45.8938 55.5351 45.7917 55.9231 45.6672 56.3022C45.5431 56.6808 45.4046 57.0622 45.2525 57.4459C45.1003 57.8296 44.9518 58.2298 44.8079 58.647C44.7759 58.6943 44.7178 58.8431 44.6334 59.094C44.5493 59.3456 44.4475 59.6607 44.3271 60.0393C44.2069 60.4184 44.0765 60.8421 43.9363 61.3112C43.7959 61.7802 43.652 62.2584 43.5038 62.7463C43.3554 63.2342 43.2132 63.7127 43.0771 64.1818C42.9406 64.6506 42.8182 65.0745 42.7103 65.4537C42.6022 65.8322 42.5121 66.1494 42.4397 66.4055C42.3677 66.6613 42.3236 66.8126 42.3076 66.8606C42.2675 67.0116 42.2032 67.1801 42.1154 67.3645C42.0273 67.5492 41.9231 67.7248 41.8027 67.8904C41.6826 68.0559 41.5504 68.1938 41.406 68.3023C41.2618 68.4111 41.1136 68.4659 40.9612 68.4659C40.7049 68.4659 40.5184 68.3805 40.4025 68.2104C40.2861 68.0397 40.2283 67.7271 40.2283 67.2725V67.0736C40.2283 67.007 40.232 66.9357 40.24 66.8606C40.2478 66.7087 40.3081 66.4244 40.4205 66.0073C40.5327 65.5907 40.6668 65.1196 40.8233 64.5938C40.9795 64.0679 41.1479 63.5232 41.3282 62.9593C41.5081 62.3958 41.6706 61.8916 41.815 61.4462C41.3897 61.9201 40.9294 62.3912 40.4325 62.8603C39.9354 63.329 39.4265 63.7507 38.9059 64.1247C38.3847 64.499 37.8598 64.8045 37.3312 65.0414C36.8023 65.2781 36.2934 65.3969 35.8046 65.3969C35.2436 65.3969 34.7608 65.2735 34.3557 65.0271C34.2828 64.9823 34.2138 64.9324 34.1452 64.8827L35.7791 81.9803C36.2045 83.0443 44.2121 85.6586 54.7701 85.6586C65.3331 85.6586 73.3438 83.0418 73.7618 81.9786L76.1088 61.6509C75.9146 61.8288 75.7255 62.0026 75.5447 62.1711C74.8713 62.796 74.236 63.3336 73.639 63.7835C73.0423 64.2335 72.4591 64.5821 71.8901 64.8279C71.3209 65.0745 70.7119 65.1976 70.0629 65.1976C69.4539 65.1976 68.9827 65.0648 68.6504 64.7996C68.318 64.5347 68.1515 64.1701 68.1515 63.7056V63.5991C68.1515 63.566 68.1555 63.5255 68.1638 63.4781C68.1955 63.1943 68.3203 62.8668 68.5365 62.4977C68.7528 62.128 69.0131 61.7446 69.3174 61.3469C69.6221 60.9489 69.9464 60.5461 70.2911 60.1387C70.6358 59.7315 70.9545 59.3456 71.2471 58.9804C71.5394 58.6164 71.7817 58.2824 71.974 57.9789C72.1668 57.6757 72.2629 57.4296 72.2629 57.24C72.2629 57.1264 72.2225 57.0365 72.1427 56.9697C72.0623 56.904 71.9299 56.8703 71.746 56.8703C71.4253 56.8703 71.0946 56.9534 70.7545 57.119C70.4136 57.2846 70.0766 57.5078 69.7442 57.787C69.4118 58.0665 69.0872 58.3866 68.7705 58.7463C68.4544 59.1063 68.1578 59.4806 67.8812 59.8686C67.6046 60.2574 67.3526 60.6483 67.124 61.0414C66.8955 61.4345 66.7012 61.7968 66.5408 62.128C66.4927 62.2325 66.4246 62.3795 66.3362 62.5685C66.2481 62.7581 66.152 62.9716 66.0479 63.2083C65.9435 63.4452 65.8334 63.6893 65.7172 63.9397C65.6011 64.1912 65.495 64.4282 65.3988 64.6506C65.3027 64.8733 65.2166 65.0717 65.1408 65.2473C65.0642 65.4223 65.0101 65.5433 64.9781 65.6098C64.938 65.6949 64.8719 65.8556 64.7798 66.0926C64.6877 66.3296 64.5813 66.6068 64.4615 66.924C64.3413 67.2412 64.2149 67.5752 64.0825 67.926C63.9509 68.2761 63.8262 68.6081 63.71 68.9207C63.5936 69.233 63.4915 69.508 63.4037 69.7449C63.3156 69.9813 63.2589 70.1426 63.2349 70.228C63.1551 70.4744 63.0607 70.7059 62.9528 70.9246C62.8444 71.1421 62.7206 71.334 62.5801 71.5001C62.44 71.6657 62.2798 71.7982 62.0993 71.8975C61.9188 71.9975 61.7165 72.0469 61.4926 72.0469C61.2037 72.0469 60.9657 71.9778 60.7769 71.8407C60.5889 71.7034 60.4945 71.4402 60.4945 71.0522C60.4945 70.8626 60.5186 70.6685 60.5666 70.4698C60.6147 70.2708 60.675 70.0738 60.7471 69.88C60.8192 69.6852 60.8936 69.4963 60.9697 69.3115C61.0455 69.1265 61.1158 68.9493 61.1796 68.7785C61.6127 67.8313 62.0535 66.8817 62.502 65.9293C62.9506 64.9775 63.3813 64.0351 63.7944 63.1018C63.8802 62.9071 63.9592 62.7164 64.043 62.5228C64.0178 62.5474 63.9932 62.5731 63.9686 62.597C63.4474 63.0995 62.9288 63.542 62.4119 63.9257C61.8948 64.3094 61.3819 64.6149 60.8736 64.8424C60.3644 65.0694 59.8695 65.1833 59.3884 65.1833C59.06 65.1833 58.7857 65.1314 58.5654 65.0271C58.3449 64.9227 58.169 64.7805 58.0365 64.6009C57.9041 64.421 57.8097 64.2078 57.7536 63.9614C57.7348 63.8772 57.723 63.7892 57.7107 63.7016C57.57 63.8109 57.4281 63.9174 57.2851 64.0185C56.7882 64.3685 56.2994 64.6506 55.8185 64.8636C55.338 65.0768 54.9049 65.1833 54.5207 65.1833C54.1357 65.1833 53.8233 65.0554 53.5825 64.7996C53.3422 64.5441 53.2223 64.1081 53.2223 63.4926C53.2223 63.0564 53.2864 62.5496 53.4143 61.9721C53.206 62.3415 52.9457 62.7158 52.6334 63.0944C52.3204 63.4735 51.964 63.8192 51.5635 64.1321C51.1622 64.4445 50.7137 64.698 50.2171 64.8921C49.72 65.0862 49.179 65.1833 48.5944 65.1833C48.3298 65.1833 48.0755 65.1502 47.8309 65.084C47.5863 65.0174 47.3721 64.9038 47.1879 64.7428C47.0034 64.5821 46.8555 64.3662 46.7431 64.0964C46.6309 63.8266 46.5749 63.4875 46.5749 63.0804C46.5749 63.071 46.5909 62.9265 46.6229 62.6467C46.6549 62.3672 46.7571 61.9267 46.9296 61.3252C47.1018 60.7239 47.3684 59.9445 47.7285 58.9875C48.0895 58.0309 48.5984 56.8703 49.2554 55.5065C49.4236 55.1462 49.6181 54.8882 49.8381 54.732C50.0589 54.5755 50.2969 54.4973 50.5532 54.4973C50.6656 54.4973 50.7818 54.5142 50.9019 54.547C51.0226 54.5804 51.1345 54.6323 51.2389 54.7034C51.3427 54.7745 51.4271 54.8647 51.4915 54.9735C51.555 55.0823 51.5876 55.2076 51.5876 55.3498C51.5876 55.4446 51.5753 55.5351 51.5512 55.6196C51.5109 55.7815 51.4248 55.9916 51.2932 56.2519C51.1608 56.5129 51.0063 56.8112 50.8298 57.1475C50.6539 57.4839 50.4674 57.8461 50.2712 58.235C50.0747 58.623 49.8924 59.0255 49.7242 59.4426C49.5561 59.8597 49.4116 60.2834 49.2915 60.7145C49.1713 61.1456 49.103 61.565 49.0872 61.9721C49.0872 62.1425 49.127 62.2987 49.2074 62.4409C49.2875 62.583 49.4199 62.6538 49.6041 62.6538C50.1247 62.6538 50.6216 62.4831 51.0947 62.1425C51.5673 61.8014 52.0038 61.3774 52.4048 60.8707C52.8056 60.3639 53.168 59.8189 53.4927 59.2362C53.8173 58.6535 54.0876 58.1211 54.3039 57.6377C54.4563 57.316 54.5905 56.9697 54.7066 56.6005C54.8228 56.2308 54.9492 55.8902 55.0854 55.5773C55.2218 55.2644 55.3777 55.0041 55.5542 54.7956C55.7301 54.5875 55.951 54.483 56.215 54.483C56.5039 54.483 56.7319 54.5921 56.9006 54.8099C57.0688 55.028 57.1526 55.2884 57.1526 55.5913C57.1526 55.7618 57.0989 55.9967 56.9905 56.2951C56.882 56.5934 56.7459 56.9346 56.5817 57.3183C56.4172 57.702 56.239 58.1116 56.0471 58.547C55.8548 58.9833 55.6761 59.4258 55.5124 59.876C55.3474 60.3259 55.2118 60.7665 55.1034 61.1975C54.995 61.6284 54.9412 62.0289 54.9412 62.398C54.9412 62.7392 55.1174 62.9099 55.4698 62.9099C55.7184 62.9099 56.0268 62.8246 56.3955 62.6538C56.7642 62.4831 57.1509 62.2442 57.5554 61.9361C57.6564 61.8593 57.7582 61.7791 57.8592 61.6949C57.9722 61.2298 58.1046 60.7999 58.2588 60.409C58.5391 59.6696 58.8237 58.9359 59.1124 58.2064C59.4007 57.477 59.665 56.8089 59.9059 56.2026L63.5478 47.0371C63.692 46.6677 63.8865 46.407 64.1305 46.2554C64.3754 46.1041 64.6217 46.0282 64.8702 46.0282C65.1182 46.0282 65.3445 46.1087 65.549 46.2697C65.7535 46.431 65.856 46.6914 65.856 47.0514C65.856 47.2218 65.8216 47.4019 65.7535 47.5912C65.6855 47.7808 65.5994 47.9844 65.495 48.2022C65.295 48.6478 65.0564 49.1923 64.7798 49.8364C64.5032 50.4807 64.2066 51.1819 63.8902 51.9396C63.5736 52.6976 63.2489 53.4861 62.9165 54.3055C62.5841 55.1251 62.2595 55.9231 61.9428 56.6999C61.6267 57.477 61.3298 58.213 61.0532 58.9096C60.7769 59.6059 60.5389 60.21 60.3381 60.7213C60.25 60.9392 60.1639 61.193 60.0801 61.4819C59.9957 61.7705 59.9539 62.0289 59.9539 62.2564C59.9539 62.398 59.9779 62.5117 60.026 62.597C60.0741 62.6824 60.1662 62.7252 60.3023 62.7252C60.4705 62.7252 60.6808 62.6661 60.9333 62.5474C61.1856 62.4292 61.458 62.2724 61.7506 62.0783C62.0435 61.8844 62.3479 61.6618 62.6639 61.4105C62.9809 61.1596 63.2952 60.8992 63.6076 60.6291C63.9205 60.3588 64.2189 60.089 64.5032 59.8189C64.7876 59.5491 65.0424 59.3004 65.267 59.0729C65.3196 59.0184 65.3825 58.9798 65.4518 58.951C65.5871 58.5476 65.7106 58.1525 65.8196 57.7659C65.8837 57.5952 65.9721 57.354 66.0842 57.0411C66.1961 56.7282 66.3245 56.4204 66.4687 56.1172C66.6128 55.8143 66.7756 55.5511 66.9552 55.3287C67.1357 55.1063 67.3302 54.9946 67.5385 54.9946C67.8591 54.9946 68.0917 55.0683 68.2359 55.2148C68.38 55.3621 68.4521 55.5773 68.4521 55.8617C68.4521 55.9185 68.4441 56.0084 68.4281 56.1315C68.4118 56.2548 68.3923 56.3853 68.3683 56.5226C68.3443 56.6596 68.318 56.7901 68.2899 56.9134C68.2616 57.0365 68.2359 57.1264 68.2118 57.1832C68.5079 56.8609 68.8286 56.5414 69.1733 56.2243C69.5179 55.9068 69.8744 55.6196 70.2431 55.3644C70.6121 55.1083 70.9885 54.9004 71.3735 54.7386C71.7577 54.5781 72.1427 54.4973 72.5272 54.4973C72.7915 54.4973 73.0541 54.5353 73.3144 54.6112C73.5747 54.6869 73.8075 54.7982 74.0115 54.945C74.216 55.0923 74.3825 55.2767 74.5103 55.4994C74.6385 55.7218 74.7026 55.9799 74.7026 56.2736C74.7026 56.6625 74.6047 57.0767 74.4082 57.5173C74.212 57.9578 73.9657 58.4006 73.6691 58.8454C73.3724 59.291 73.0518 59.7241 72.7077 60.1458C72.363 60.5675 72.0406 60.9509 71.74 61.2966C71.4393 61.6429 71.1867 61.9361 70.9822 62.1776C70.7786 62.4197 70.6716 62.583 70.6639 62.6684C70.6639 62.782 70.7002 62.8743 70.7723 62.9456C70.8444 63.0164 70.9645 63.0521 71.1327 63.0521C71.2688 63.0521 71.4697 62.9762 71.7337 62.8246C71.998 62.673 72.369 62.4103 72.8455 62.036C73.3221 61.6618 73.9277 61.1596 74.6608 60.5295C75.1637 60.0978 75.7524 59.5831 76.4157 58.9975L79.5949 29.612C79.0828 29.8941 78.5502 30.0711 78.2361 30.1747C76.9209 30.6081 75.0636 30.9941 72.7157 31.3213ZM54.9858 24.3492C41.2416 24.3492 30.0996 25.883 30.0996 27.7752C30.0996 29.6673 41.2416 31.2011 54.9858 31.2011C68.73 31.2011 79.872 29.6673 79.872 27.7752C79.872 25.883 68.73 24.3492 54.9858 24.3492ZM64.9226 28.7764C64.9226 29.2203 63.5985 29.5803 61.9648 29.5803C60.3315 29.5803 59.0074 29.2203 59.0074 28.7764C59.0074 28.3322 60.3315 27.9722 61.9648 27.9722C63.5985 27.9722 64.9226 28.3322 64.9226 28.7764Z" fill="#DA4648"/>
<path fill-rule="evenodd" clip-rule="evenodd" d="M59.6062 28.4209C59.5916 28.4442 59.584 28.4681 59.584 28.4923C59.584 28.7798 60.6501 29.0124 61.9648 29.0124C63.2797 29.0124 64.3455 28.7798 64.3455 28.4923L67.4552 15.9083L79.8219 2.87706C79.826 2.87308 79.8299 2.86897 79.8336 2.86471C80.0954 2.56923 79.5642 1.6548 78.6829 0.870546C77.8016 0.0862968 76.8499 -0.179212 76.5541 0.119414C76.5519 0.121647 76.5497 0.123912 76.5476 0.126209L63.353 13.9835L59.6062 28.4209Z" fill="#DA4648"/>
</svg>
