<svg width="110" height="110" viewBox="0 0 110 110" fill="none" xmlns="http://www.w3.org/2000/svg">
<g clip-path="url(#clip0_26_361)">
<path d="M16.6775 21.4951L16.6897 22.4781C16.6964 23.0188 18.2472 40.9197 20.1359 62.2578L23.57 101.054L39.0046 105.419C47.4936 107.82 54.6143 109.796 54.8284 109.811C55.0426 109.827 62.2574 107.87 70.8614 105.464C84.6562 101.606 86.5185 101.025 86.6172 100.547C86.7549 99.8819 93.5102 22.9085 93.5033 22.0849L93.4983 21.4951H55.0877H16.6775Z" fill="white"/>
<path d="M39.1269 105.68L23.5551 101.284L23.3516 100.121C23.1707 99.0866 16.418 22.9075 16.418 21.901C16.418 21.5367 20.3607 21.4954 55.088 21.4954C91.7447 21.4954 93.7579 21.5192 93.755 21.9541C93.7428 23.8323 86.7532 101.02 86.5815 101.174C86.3644 101.368 56.2249 109.849 55.2178 109.999C54.9323 110.042 47.6914 108.098 39.1269 105.68ZM64.9069 90.1461C70.1408 88.6881 74.4985 87.42 74.5908 87.3281C74.6832 87.2363 75.2956 80.9681 75.9519 73.3988C76.6081 65.8296 77.2113 59.1352 77.2922 58.5224L77.4394 57.4084H66.1339H54.8285V62.2579V67.1075H60.9324H67.0363L66.9149 67.6973C66.8481 68.0217 66.5885 70.8094 66.338 73.8922C66.0726 77.1588 65.7579 79.6233 65.5838 79.7991C65.4194 79.9651 62.9323 80.7343 60.0567 81.5085L54.8285 82.916V87.8565C54.8285 91.2287 54.9177 92.7971 55.1096 92.7971C55.2642 92.7971 59.673 91.6042 64.9069 90.1461ZM77.2906 51.3136C77.1191 50.0291 75.5909 32.8008 75.5909 32.1512C75.5909 31.7567 74.6925 31.7188 65.3394 31.7188H55.088V36.7899V41.8611L59.6947 42.0404C62.2283 42.139 64.8948 42.2892 65.6201 42.374L66.9389 42.5282L67.259 46.495C67.4351 48.6767 67.6449 50.904 67.7252 51.4447L67.8713 52.4277H72.6554H77.4394L77.2906 51.3136Z" fill="#EAEBEC"/>
<path d="M39.0046 105.419L23.5701 101.054L20.136 62.2579C18.2472 40.9198 16.6964 23.019 16.6897 22.4784L16.6775 21.4954H55.088H93.4985L93.5034 22.0852C93.5104 22.9087 86.7549 99.8821 86.6172 100.547C86.5185 101.025 84.6563 101.606 70.8615 105.464C62.2574 107.87 55.0426 109.827 54.8285 109.812C54.6143 109.797 47.4936 107.82 39.0046 105.419ZM64.9186 90.3315C70.254 88.8332 74.6951 87.4836 74.7877 87.3324C74.8802 87.1811 75.5176 80.5928 76.2041 72.6916C76.8906 64.7905 77.5085 58.1194 77.5772 57.8671C77.6952 57.4337 76.7874 57.4084 61.1268 57.4084H44.5514L45.2572 49.8719C45.6453 45.7268 45.9722 42.3247 45.9836 42.3115C45.9951 42.2984 48.4278 42.22 51.3897 42.1374C56.2463 42.0018 66.2617 42.3931 66.5967 42.7316C66.7219 42.858 67.5454 51.0185 67.5454 52.1325C67.5454 52.6817 67.6188 52.6899 72.5744 52.6899H77.6034L77.4848 51.5758C77.4197 50.963 76.9937 46.215 76.5382 41.0247L75.71 31.5877L56.3154 31.5205C40.886 31.467 36.9204 31.5206 36.9187 31.7826C36.9174 31.9638 36.8045 33.1147 36.6674 34.3402C36.3358 37.3056 33.8065 65.9585 33.8065 66.7499V67.3696H50.3095H66.8125L66.6653 68.3526C66.5844 68.8933 66.3279 71.6359 66.0953 74.4474C65.8626 77.2588 65.5974 79.6317 65.5059 79.7205C65.2641 79.9549 55.5556 82.5746 54.9502 82.5687C54.6691 82.566 52.1618 81.9341 49.3783 81.1646L44.3175 79.7653L44.1319 77.5651C44.0298 76.355 43.8745 74.6276 43.7868 73.7265L43.6273 72.0881H38.7169H33.8065L33.8174 73.0711C33.8377 74.9095 35.0179 87.2924 35.1893 87.4656C35.3875 87.6658 54.2477 93.0206 54.8285 93.0416C55.0426 93.0493 59.5831 91.8298 64.9186 90.3315Z" fill="#F0BE25"/>
<path d="M39.0046 105.419L23.5701 101.054L20.136 62.2579C18.2472 40.9198 16.6964 23.019 16.6897 22.4784L16.6775 21.4954H55.088H93.4985L93.5034 22.0852C93.5104 22.9087 86.7549 99.8821 86.6172 100.547C86.5185 101.025 84.6563 101.606 70.8615 105.464C62.2574 107.87 55.0426 109.827 54.8285 109.812C54.6143 109.797 47.4936 107.82 39.0046 105.419ZM67.788 99.58C74.5776 97.6877 80.2602 96.0067 80.4161 95.8445C80.6586 95.592 86.5226 30.6793 86.499 28.5076L86.4911 27.7867H70.7896H55.088V29.6217V31.4566H46.0044C38.9117 31.4566 36.9204 31.5284 36.9187 31.7843C36.9174 31.9645 36.8045 33.1147 36.6674 34.3402C36.3358 37.3056 33.8065 65.9585 33.8065 66.7499V67.3696H44.4472H55.088V74.9717C55.088 80.8811 55.0157 82.5726 54.7636 82.5687C54.5851 82.566 52.1618 81.9341 49.3783 81.1646L44.3175 79.7653L44.1319 77.5651C44.0298 76.355 43.8745 74.6276 43.7868 73.7265L43.6273 72.0881H38.7169H33.8065L33.8174 73.0711C33.8485 75.8829 35.0527 87.3602 35.3351 87.5365C35.5068 87.6436 40.0214 88.9539 45.3676 90.4482L55.088 93.165V98.0928C55.088 100.803 55.1679 103.02 55.2657 103.02C55.3634 103.02 60.9985 101.472 67.788 99.58ZM45.2298 49.9423C45.6029 45.836 45.959 42.4298 46.0212 42.373C46.0833 42.3162 48.1488 42.2134 50.6111 42.1446L55.088 42.0195V49.7139V57.4084H49.8197H44.5514L45.2298 49.9423Z" fill="#E4A126"/>
<path d="M41.0735 12.1894V9.69913H44.5771H48.0808V4.84957V0H50.5463H53.0119V7.33988V14.6798H47.0427H41.0735V12.1894ZM55.3477 12.7137V10.7477H58.5918C60.3761 10.7477 61.8359 10.6811 61.8359 10.5996C61.8359 10.5182 60.3761 8.85351 58.5918 6.9003L55.3477 3.349V1.6745V0H62.0954H68.8432V1.95797V3.91594L65.6754 3.98955L62.5076 4.06315L65.8052 7.65005L69.1028 11.2369V12.9584V14.6798H62.2252H55.3477V12.7137Z" fill="#0E0E0F"/>
</g>
<defs>
<clipPath id="clip0_26_361">
<rect width="110" height="110" fill="white"/>
</clipPath>
</defs>
</svg>
