<svg width="201" height="201" viewBox="0 0 201 201" fill="none" xmlns="http://www.w3.org/2000/svg">
<g clip-path="url(#clip0_305_99)">
<path d="M120.114 87.4137C115.723 87.4137 112.45 89.5867 112.45 94.8124C112.45 98.7492 114.604 101.485 119.878 101.485C124.348 101.485 127.385 98.836 127.385 94.6498C127.385 89.9073 124.668 87.4137 120.114 87.4137ZM111.331 124.324C110.291 125.608 109.255 126.976 109.255 128.585C109.255 131.8 113.324 132.765 118.917 132.765C123.553 132.765 129.862 132.44 129.862 128.106C129.862 125.525 126.826 125.366 122.99 125.124L111.331 124.324ZM134.975 87.6557C136.409 89.5073 137.93 92.0803 137.93 95.7797C137.93 104.701 130.981 109.93 120.918 109.93C118.358 109.93 116.042 109.609 114.604 109.205L111.97 113.467L119.795 113.948C133.616 114.834 141.762 115.239 141.762 125.929C141.762 135.175 133.695 140.402 119.795 140.402C105.34 140.402 99.8263 136.703 99.8263 130.35C99.8263 126.731 101.425 124.806 104.222 122.147C101.583 121.028 100.708 119.018 100.708 116.845C100.708 115.077 101.583 113.467 103.024 111.937C104.461 110.411 106.057 108.884 107.976 107.115C104.064 105.184 101.106 101.002 101.106 95.0507C101.106 85.8042 107.175 79.4551 119.398 79.4551C122.832 79.4551 124.908 79.7729 126.747 80.2607H142.324V87.0921L134.976 87.6557" fill="#362701"/>
<mask id="mask0_305_99" style="mask-type:luminance" maskUnits="userSpaceOnUse" x="145" y="58" width="24" height="64">
<path d="M145.932 58.7299H168.877V121.75H145.932V58.7299Z" fill="white"/>
</mask>
<g mask="url(#mask0_305_99)">
<path d="M156.375 73.0421C151.822 73.0421 149.187 70.3905 149.187 65.8024C149.187 61.2225 151.822 58.7289 156.375 58.7289C161.01 58.7289 163.646 61.2234 163.646 65.8024C163.646 70.3896 161.011 73.0421 156.375 73.0421ZM146.071 121.367V115.015L150.144 114.455C151.263 114.293 151.424 114.051 151.424 112.842V89.2032C151.424 88.3227 151.184 87.7564 150.385 87.518L146.071 85.988L146.949 79.4772H163.485V112.843C163.485 114.136 163.564 114.294 164.765 114.457L168.837 115.016V121.368L146.071 121.367Z" fill="#362701"/>
</g>
<mask id="mask1_305_99" style="mask-type:luminance" maskUnits="userSpaceOnUse" x="167" y="66" width="34" height="56">
<path d="M167.959 66.3152H200.423V121.75H167.959V66.3152Z" fill="white"/>
</mask>
<g mask="url(#mask1_305_99)">
<path d="M200.423 118.248C196.988 119.934 191.958 121.464 187.402 121.464C177.897 121.464 174.305 117.607 174.305 108.516V87.4534C174.305 86.9693 174.305 86.6487 173.662 86.6487H168.07V79.492C175.104 78.6873 177.897 75.1469 178.775 66.3835H186.366V77.8031C186.366 78.3658 186.366 78.6069 187.003 78.6069H198.265V86.6487H186.366V105.863C186.366 110.608 187.483 112.456 191.797 112.456C194.034 112.456 196.35 111.894 198.265 111.172L200.423 118.248Z" fill="#362701"/>
</g>
<mask id="mask2_305_99" style="mask-type:luminance" maskUnits="userSpaceOnUse" x="0" y="58" width="85" height="85">
<path d="M0 58.7299H84.4384V143H0V58.7299Z" fill="white"/>
</mask>
<g mask="url(#mask2_305_99)">
<path d="M82.0722 97.1471L45.5499 60.3856C45.0497 59.8819 44.4559 59.4824 43.8024 59.2099C43.1489 58.9373 42.4484 58.797 41.741 58.797C41.0336 58.797 40.3331 58.9373 39.6795 59.2099C39.026 59.4824 38.4322 59.8819 37.9321 60.3856L30.3482 68.0189L39.9668 77.7052C41.0976 77.3172 42.3138 77.2559 43.4774 77.5283C44.6411 77.8007 45.7056 78.3958 46.5503 79.2463C47.3991 80.1022 47.9916 81.1811 48.2604 82.3598C48.5291 83.5385 48.4632 84.7696 48.0702 85.9124L57.3419 95.2485C58.4769 94.8513 59.7001 94.7842 60.8712 95.055C62.0423 95.3258 63.1139 95.9234 63.9629 96.7794C64.5588 97.3781 65.0315 98.0891 65.354 98.8719C65.6766 99.6547 65.8426 100.494 65.8426 101.341C65.8426 102.189 65.6766 103.028 65.354 103.811C65.0315 104.593 64.5588 105.304 63.9629 105.903C63.3679 106.503 62.6613 106.979 61.8833 107.304C61.1054 107.628 60.2716 107.796 59.4294 107.796C58.5873 107.796 57.7534 107.628 56.9755 107.304C56.1976 106.979 55.4909 106.503 54.8959 105.903C54.0021 105.002 53.3929 103.856 53.1448 102.607C52.8968 101.359 53.0209 100.064 53.5018 98.8869L44.8542 90.1818V113.088C45.4819 113.399 46.0549 113.811 46.5503 114.308C47.7524 115.519 48.4276 117.16 48.4276 118.872C48.4276 120.584 47.7524 122.225 46.5503 123.436C44.0447 125.955 39.9852 125.955 37.4869 123.436C36.8908 122.837 36.4179 122.126 36.0953 121.343C35.7726 120.559 35.6065 119.72 35.6065 118.872C35.6065 118.024 35.7726 117.185 36.0953 116.401C36.4179 115.618 36.8908 114.907 37.4869 114.308C38.0852 113.702 38.7984 113.223 39.5841 112.901V89.7808C38.7984 89.4581 38.0852 88.9796 37.4869 88.3737C36.5871 87.4684 35.975 86.3141 35.7285 85.0577C35.4821 83.8012 35.6124 82.4994 36.1029 81.3177L26.6201 71.7682L1.57768 96.9771C1.07724 97.4806 0.680256 98.0784 0.409405 98.7364C0.138554 99.3944 -0.000854492 100.1 -0.000854492 100.812C-0.000854492 101.524 0.138554 102.229 0.409405 102.887C0.680256 103.545 1.07724 104.143 1.57768 104.647L38.1 141.412C38.6002 141.915 39.194 142.315 39.8475 142.588C40.501 142.86 41.2015 143 41.9089 143C42.6163 143 43.3168 142.86 43.9704 142.588C44.6239 142.315 45.2177 141.915 45.7178 141.412L82.0722 104.82C83.0829 103.803 83.6507 102.423 83.6507 100.984C83.6507 99.5447 83.0829 98.1647 82.0722 97.1471Z" fill="#F03C2E"/>
</g>
</g>
<defs>
<clipPath id="clip0_305_99">
<rect width="201" height="85" fill="white" transform="translate(0 58)"/>
</clipPath>
</defs>
</svg>
