<svg width="201" height="201" viewBox="0 0 201 201" fill="none" xmlns="http://www.w3.org/2000/svg">
<g clip-path="url(#clip0_304_40)">
<path d="M58.3635 98.563V98.5951L55.7285 110.105C55.5863 110.756 54.9392 111.232 54.194 111.232H51.0099C50.8951 111.232 50.7835 111.27 50.6917 111.339C50.5999 111.409 50.5327 111.506 50.5 111.617C47.5635 121.641 43.5876 128.531 38.3371 132.667C33.871 136.19 28.3655 137.832 21.0094 137.832C14.4009 137.832 9.9446 135.694 6.16482 131.471C1.16924 125.891 -0.894691 116.755 0.355431 105.748C2.61055 85.0851 13.2611 64.2344 33.768 64.2344C40.0064 64.1801 44.9039 66.1165 48.3111 69.9817C51.9144 74.0715 53.743 80.2283 53.7528 88.2893C53.7439 88.6427 53.5982 88.9786 53.3469 89.2255C53.0955 89.4725 52.7583 89.6109 52.4071 89.6115H37.3811C37.1178 89.6033 36.8676 89.4939 36.682 89.3058C36.4965 89.1177 36.3896 88.8651 36.3835 88.6001C36.2609 83.0255 34.6186 80.3121 31.3536 80.3121C25.5932 80.3121 22.1958 88.1808 20.3941 92.5419C17.8767 98.6345 16.5948 105.253 16.8472 111.844C16.9673 114.912 17.4576 119.226 20.3525 121.015C22.9189 122.598 26.581 121.547 28.7994 119.794C31.0153 118.037 32.7998 115.001 33.5498 112.231C33.6552 111.846 33.6626 111.548 33.5621 111.414C33.4567 111.276 33.165 111.244 32.9419 111.244H29.0837C28.8795 111.245 28.6776 111.201 28.4922 111.114C28.3067 111.028 28.1422 110.903 28.0101 110.746C27.9087 110.624 27.8368 110.479 27.7998 110.324C27.7628 110.17 27.7618 110.008 27.7968 109.853L30.4343 98.3237C30.5643 97.7342 31.0962 97.2877 31.7507 97.2088V97.1792H57.0718C57.1306 97.1792 57.1919 97.1792 57.2482 97.1915C57.9052 97.2779 58.3684 97.8921 58.3562 98.563H58.3635Z" fill="#0E100F"/>
<path d="M101.958 85.3367C101.947 85.6874 101.8 86.0199 101.55 86.2639C101.299 86.5079 100.964 86.6442 100.615 86.644H86.7756C85.8686 86.644 85.1112 85.904 85.1112 85.0037C85.1112 80.9411 83.714 78.9628 80.8559 78.9628C77.9977 78.9628 76.1544 80.7289 76.1005 83.8147C76.0392 87.2557 77.9732 90.3835 83.4787 95.7559C90.7269 102.598 93.6316 108.659 93.4919 116.671C93.2639 129.626 84.5106 138 71.1907 138C64.3886 138 59.192 136.17 55.7358 132.559C52.2281 128.891 50.6201 123.508 50.9559 116.562C50.9674 116.211 51.1143 115.878 51.3655 115.634C51.6167 115.39 51.9524 115.254 52.3016 115.255H66.6167C66.8161 115.258 67.0123 115.306 67.1912 115.394C67.3701 115.483 67.5272 115.611 67.6512 115.768C67.7593 115.898 67.8385 116.05 67.8833 116.213C67.9281 116.377 67.9376 116.548 67.911 116.715C67.7516 119.221 68.1855 121.093 69.166 122.129C69.7935 122.8 70.6686 123.141 71.7594 123.141C74.4043 123.141 75.9534 121.261 76.0123 117.985C76.0613 115.154 75.1715 112.672 70.323 107.653C64.0601 101.496 58.4444 95.1343 58.6184 85.1319C58.7214 79.3303 61.0108 74.0245 65.0676 70.1913C69.3572 66.1411 75.223 64 82.0325 64C88.8542 64.0493 94.0238 66.0079 97.3992 69.8213C100.596 73.435 102.132 78.6545 101.963 85.3367H101.958Z" fill="#0E100F"/>
<path d="M144.855 135.563L144.946 66.6616C144.948 66.489 144.916 66.3177 144.852 66.1576C144.788 65.9976 144.693 65.852 144.572 65.7296C144.451 65.6071 144.307 65.5101 144.149 65.4444C143.99 65.3787 143.82 65.3455 143.649 65.3468H122.23C121.509 65.3468 121.193 65.9709 120.987 66.3828L89.9745 135.141V135.154L89.9622 135.171C89.619 136.017 90.2711 136.922 91.1805 136.922H106.153C106.961 136.922 107.498 136.675 107.761 136.162L110.734 128.972C111.099 128.013 111.168 127.924 112.207 127.924H126.512C127.508 127.924 127.527 127.943 127.512 128.923L127.191 135.607C127.189 135.78 127.22 135.951 127.284 136.111C127.348 136.271 127.443 136.416 127.564 136.539C127.684 136.661 127.828 136.758 127.986 136.824C128.145 136.89 128.314 136.923 128.486 136.922H143.612C143.799 136.924 143.985 136.885 144.155 136.808C144.326 136.73 144.478 136.616 144.6 136.473C144.705 136.349 144.783 136.203 144.827 136.046C144.871 135.889 144.88 135.724 144.855 135.563ZM118.357 112.559C118.244 112.559 118.131 112.555 118.019 112.547C117.966 112.542 117.916 112.526 117.87 112.5C117.824 112.474 117.785 112.438 117.754 112.394C117.724 112.351 117.703 112.302 117.694 112.25C117.685 112.197 117.687 112.144 117.7 112.093C117.73 111.994 117.771 111.858 117.833 111.693L128.559 84.984C128.656 84.7204 128.767 84.4627 128.892 84.2119C129.067 83.8518 129.277 83.8271 129.344 84.0935C129.4 84.3155 128.113 111.518 128.113 111.518C128.012 112.537 127.966 112.579 126.968 112.662L118.367 112.564H118.347L118.357 112.559Z" fill="#0E100F"/>
<path d="M175.368 65.3468H163.996C163.396 65.3468 162.722 65.6674 162.565 66.3877L146.74 135.528C146.705 135.684 146.707 135.846 146.744 136.001C146.782 136.157 146.854 136.301 146.956 136.424C147.087 136.58 147.252 136.706 147.437 136.792C147.622 136.878 147.823 136.922 148.027 136.922H162.239C163.004 136.922 163.526 136.545 163.668 135.891L165.394 128.054C165.516 127.443 165.305 126.969 164.761 126.683C164.506 126.551 164.251 126.417 163.996 126.283L161.533 124.993L159.082 123.706L158.133 123.21C158.056 123.171 157.991 123.111 157.947 123.037C157.902 122.963 157.879 122.877 157.881 122.79C157.884 122.662 157.937 122.54 158.029 122.45C158.12 122.361 158.243 122.311 158.371 122.312L166.158 122.346C168.487 122.359 170.818 122.194 173.11 121.769C189.239 118.772 199.951 105.773 200.26 88.0845C200.524 72.9885 192.151 65.3394 175.38 65.3394L175.368 65.3468ZM171.497 106.491H171.193C170.509 106.491 170.389 106.417 170.37 106.392C170.357 106.375 174.86 86.4787 174.863 86.4516C174.978 85.8768 174.973 85.5463 174.62 85.3514C174.169 85.0998 167.595 81.612 167.595 81.612C167.518 81.5715 167.455 81.5103 167.411 81.4354C167.367 81.3604 167.345 81.2746 167.347 81.1877C167.35 81.061 167.403 80.9405 167.493 80.852C167.583 80.7635 167.704 80.714 167.83 80.7141H178.226C181.461 80.8128 183.265 83.7259 183.18 88.7012C183.03 97.3123 178.961 106.187 171.497 106.491Z" fill="#0E100F"/>
</g>
<defs>
<clipPath id="clip0_304_40">
<rect width="201" height="74" fill="white" transform="translate(0 64)"/>
</clipPath>
</defs>
</svg>
