<svg width="110" height="110" viewBox="0 0 110 110" fill="none" xmlns="http://www.w3.org/2000/svg">
<path d="M94.7186 61.1863C90.8811 61.2064 87.5458 62.1322 84.753 63.5008C83.7283 61.468 82.7036 59.6566 82.5228 58.3282C82.3219 56.7785 82.0808 55.8325 82.3219 53.9808C82.563 52.1292 83.648 49.4926 83.6279 49.2913C83.6078 49.09 83.3868 48.1441 81.1767 48.1239C78.9665 48.1038 77.0578 48.5466 76.8368 49.1303C76.6158 49.714 76.1939 51.0423 75.9126 52.4109C75.5308 54.4236 71.4923 61.6089 69.1818 65.3726C68.4384 63.9034 67.7954 62.6153 67.6548 61.5888C67.4539 60.039 67.2128 59.0931 67.4539 57.2414C67.695 55.3897 68.7799 52.7531 68.7598 52.5518C68.7398 52.3506 68.5187 51.4046 66.3086 51.3845C64.0985 51.3644 62.1898 51.8071 61.9688 52.3908C61.7478 52.9745 61.5067 54.3431 61.0445 55.6715C60.5824 56.9999 55.2179 68.9955 53.8114 72.095C53.0881 73.685 52.4653 74.953 52.0233 75.8185C52.0233 75.8185 52.0032 75.8789 51.9429 75.9795C51.5612 76.7242 51.3401 77.1267 51.3401 77.1267C51.3401 77.1267 51.3401 77.1267 51.3401 77.1468C51.0388 77.6903 50.7173 78.1934 50.5566 78.1934C50.436 78.1934 50.215 76.7443 50.5967 74.7719C51.4004 70.6056 53.3092 64.1248 53.2891 63.9034C53.2891 63.7826 53.6507 62.6555 52.0434 62.0718C50.4762 61.4882 49.9136 62.4542 49.773 62.4542C49.6323 62.4542 49.5319 62.7964 49.5319 62.7964C49.5319 62.7964 51.2799 55.5105 46.1966 55.5105C43.0221 55.5105 38.642 58.9924 36.4721 62.1322C35.1059 62.8769 32.1925 64.4669 29.0783 66.1777C27.8929 66.8419 26.6673 67.5061 25.522 68.13C25.4416 68.0495 25.3613 67.9489 25.2809 67.8684C19.1328 61.2869 7.76075 56.6376 8.24296 47.8019C8.42379 44.5816 9.52884 36.1283 30.0829 25.8636C47.0003 17.511 60.4619 19.8256 62.7925 24.9579C66.1278 32.2841 55.5795 45.8899 38.0996 47.8623C31.429 48.607 27.933 46.0307 27.049 45.0646C26.1248 44.0583 25.9841 43.9979 25.6426 44.1992C25.08 44.5011 25.4416 45.4068 25.6426 45.9301C26.165 47.2987 28.3148 49.7139 31.9514 50.9014C35.1661 51.948 42.9819 52.5317 52.4452 48.8686C63.0336 44.7627 71.3115 33.3508 68.8804 23.7906C66.4493 14.0894 50.3757 10.8893 35.1661 16.3034C26.1248 19.5237 16.3199 24.5956 9.26765 31.1972C0.889312 39.0467 -0.436754 45.8697 0.105728 48.7277C2.05464 58.8717 16.0185 65.4733 21.6041 70.3641C21.3228 70.5251 21.0616 70.666 20.8406 70.7868C18.0478 72.1755 7.3991 77.7506 4.74696 83.6478C1.73317 90.3299 5.22917 95.1201 7.53974 95.7642C14.7126 97.7567 22.0863 94.1742 26.0444 88.2569C30.0025 82.3396 29.5203 74.6511 27.6919 71.1289C27.6719 71.0887 27.6518 71.0484 27.6116 71.0082C28.3349 70.5855 29.0783 70.1427 29.8016 69.72C31.2281 68.8747 32.6346 68.0898 33.8401 67.4457C33.1569 69.3175 32.6546 71.5516 32.4135 74.7719C32.1122 78.5557 33.6592 83.4667 35.6885 85.3988C36.5927 86.2442 37.6575 86.2643 38.3407 86.2643C40.7115 86.2643 41.7764 84.2919 42.9618 81.9572C44.4084 79.0992 45.7144 75.7782 45.7144 75.7782C45.7144 75.7782 44.087 84.7548 48.5072 84.7548C50.1145 84.7548 51.742 82.6616 52.4653 81.5949C52.4653 81.615 52.4653 81.615 52.4653 81.615C52.4653 81.615 52.5055 81.5546 52.5858 81.4137C52.7466 81.1521 52.847 80.9911 52.847 80.9911C52.847 80.9911 52.847 80.9709 52.847 80.9508C53.49 79.8237 54.9366 77.2676 57.0864 73.0208C59.8591 67.5463 62.5313 60.7032 62.5313 60.7032C62.5313 60.7032 62.7724 62.3737 63.5962 65.1512C64.0784 66.7815 65.083 68.5728 65.8867 70.3037C65.2438 71.2094 64.8419 71.7126 64.8419 71.7126C64.8419 71.7126 64.8419 71.7126 64.862 71.7327C64.3396 72.417 63.777 73.1617 63.1542 73.8863C60.9642 76.5028 58.3522 79.5017 57.9906 80.3671C57.5686 81.3936 57.6691 82.1383 58.4728 82.7421C59.0554 83.1849 60.1002 83.2453 61.1651 83.1849C63.1341 83.044 64.5204 82.561 65.2036 82.2591C66.2684 81.8767 67.5141 81.293 68.6795 80.4275C70.8293 78.8375 72.1353 76.5632 72.0147 73.5643C71.9545 71.9139 71.412 70.2635 70.7489 68.7137C70.9499 68.4319 71.1307 68.1501 71.3316 67.8684C74.7271 62.897 77.3592 57.4427 77.3592 57.4427C77.3592 57.4427 77.6003 59.1132 78.4241 61.8907C78.8259 63.2996 79.6497 64.8292 80.373 66.3186C77.1784 68.915 75.2094 71.934 74.5061 73.9064C73.2403 77.5695 74.2248 79.2199 76.0934 79.6023C76.9373 79.7835 78.1428 79.3809 79.0268 78.9985C80.152 78.6362 81.478 78.0123 82.7438 77.0865C84.8937 75.4964 86.9631 73.2825 86.8426 70.2836C86.7823 68.915 86.4206 67.5665 85.9184 66.2582C88.6308 65.1311 92.1268 64.5072 96.5872 65.0305C106.151 66.1576 108.04 72.1353 107.678 74.6511C107.316 77.167 105.307 78.5356 104.644 78.9583C103.981 79.3809 103.76 79.5218 103.82 79.8237C103.901 80.2665 104.222 80.2464 104.785 80.1659C105.568 80.025 109.808 78.1331 109.988 73.5039C110.29 67.5866 104.664 61.1259 94.7186 61.1863ZM20.9411 86.1033C17.7665 89.5651 13.3463 90.8734 11.4376 89.7664C9.3882 88.5789 10.1919 83.4667 14.0897 79.8036C16.4606 77.5695 19.5145 75.4964 21.5438 74.2284C22.0059 73.9467 22.6891 73.5441 23.5128 73.041C23.6535 72.9605 23.7338 72.9202 23.7338 72.9202C23.8946 72.8196 24.0553 72.7189 24.216 72.6183C25.6426 77.8513 24.2763 82.4603 20.9411 86.1033ZM44.0468 70.3641C42.9417 73.0611 40.6311 79.9646 39.2247 79.5822C38.0192 79.2602 37.2758 74.0272 38.9836 68.8546C39.8476 66.2582 41.6759 63.1587 42.7408 61.9511C44.4687 60.0189 46.3774 59.3748 46.8396 60.1598C47.4222 61.1863 44.7299 68.6734 44.0468 70.3641ZM63.114 79.5017C62.6519 79.7432 62.2099 79.9042 62.009 79.7835C61.8683 79.7029 62.2099 79.3809 62.2099 79.3809C62.2099 79.3809 64.6008 76.8047 65.5451 75.6373C66.0876 74.953 66.7306 74.1479 67.4137 73.2422C67.4137 73.3227 67.4137 73.4234 67.4137 73.5039C67.4137 76.5833 64.4401 78.6564 63.114 79.5017ZM77.8213 76.1405C77.4797 75.899 77.54 75.0939 78.6853 72.578C79.1273 71.5918 80.1721 69.9414 81.9602 68.3514C82.1612 68.9955 82.3018 69.6194 82.2817 70.2031C82.2616 74.0876 79.4889 75.5367 77.8213 76.1405Z" fill="#CD6799"/>
</svg>
