<svg width="110" height="110" viewBox="0 0 110 110" fill="none" xmlns="http://www.w3.org/2000/svg">
<mask id="mask0_26_374" style="mask-type:alpha" maskUnits="userSpaceOnUse" x="11" y="11" width="88" height="88">
<path fill-rule="evenodd" clip-rule="evenodd" d="M73.1964 98.1355C74.5669 98.6722 76.1296 98.6379 77.5128 97.9688L95.4277 89.3038C97.3102 88.3932 98.5074 86.4782 98.5074 84.3773V25.623C98.5074 23.5221 97.3103 21.607 95.4278 20.6965L77.5128 12.0312C75.6974 11.1532 73.5729 11.3683 71.9795 12.5326C71.752 12.6989 71.5352 12.8846 71.3317 13.0893L37.0358 44.5403L22.0971 33.1419C20.7064 32.0808 18.7613 32.1678 17.4698 33.3487L12.6785 37.7297C11.0986 39.1742 11.0968 41.6725 12.6746 43.1194L25.6298 55L12.6746 66.8806C11.0968 68.3274 11.0986 70.8258 12.6785 72.2703L17.4698 76.6513C18.7613 77.8323 20.7064 77.9192 22.0971 76.8581L37.0358 65.4597L71.3317 96.9107C71.8743 97.4564 72.5113 97.8673 73.1964 98.1355ZM76.7669 35.1442L50.7441 55L76.7669 74.8557V35.1442Z" fill="white"/>
</mask>
<g mask="url(#mask0_26_374)">
<path d="M95.4284 20.7099L77.4994 12.0327C75.4241 11.0283 72.944 11.452 71.3153 13.0891L12.6225 66.8805C11.0439 68.3272 11.0457 70.8256 12.6265 72.2701L17.4207 76.6511C18.713 77.8321 20.6593 77.919 22.0508 76.858L92.7305 22.961C95.1018 21.1528 98.5075 22.8528 98.5075 25.8446V25.6353C98.5075 23.5353 97.3107 21.6209 95.4284 20.7099Z" fill="#0065A9"/>
<g filter="url(#filter0_d_26_374)">
<path d="M95.4284 89.2898L77.4994 97.9671C75.4241 98.9716 72.944 98.5477 71.3153 96.9107L12.6225 43.1193C11.0439 41.6725 11.0457 39.1741 12.6265 37.7296L17.4207 33.3486C18.713 32.1676 20.6593 32.0807 22.0508 33.1418L92.7305 87.0387C95.1018 88.8469 98.5075 87.1469 98.5075 84.1552V84.3645C98.5075 86.4644 97.3107 88.3788 95.4284 89.2898Z" fill="#007ACC"/>
</g>
<g filter="url(#filter1_d_26_374)">
<path d="M77.5003 97.9686C75.4244 98.9725 72.9443 98.5478 71.3154 96.9106C73.3223 98.9279 76.7539 97.4991 76.7539 94.6462V15.3535C76.7539 12.5006 73.3223 11.0718 71.3154 13.0892C72.9443 11.4519 75.4244 11.0276 77.5003 12.0311L95.4261 20.6964C97.3097 21.6069 98.5076 23.522 98.5076 25.6229V84.3771C98.5076 86.4781 97.3098 88.3931 95.4261 89.3037L77.5003 97.9686Z" fill="#1F9CF0"/>
</g>
<g style="mix-blend-mode:overlay" opacity="0.25">
<path fill-rule="evenodd" clip-rule="evenodd" d="M73.1436 98.1355C74.5141 98.6721 76.0769 98.6378 77.4601 97.9687L95.375 89.3038C97.2575 88.3932 98.4546 86.4782 98.4546 84.3772V25.623C98.4546 23.522 97.2575 21.6069 95.3751 20.6964L77.4601 12.0312C75.6448 11.1531 73.5201 11.3682 71.9268 12.5325C71.6993 12.6989 71.4824 12.8846 71.279 13.0892L36.983 44.5402L22.0444 33.1419C20.6538 32.0807 18.7086 32.1677 17.417 33.3486L12.6257 37.7296C11.0459 39.1742 11.0441 41.6725 12.6218 43.1193L25.5771 54.9999L12.6218 66.8806C11.0441 68.3274 11.0459 70.8257 12.6257 72.2702L17.417 76.6512C18.7086 77.8322 20.6538 77.9191 22.0444 76.8581L36.983 65.4596L71.279 96.9107C71.8215 97.4563 72.4585 97.8673 73.1436 98.1355ZM76.7141 35.1442L50.6913 54.9999L76.7141 74.8557V35.1442Z" fill="url(#paint0_linear_26_374)"/>
</g>
</g>
<defs>
<filter id="filter0_d_26_374" x="3.10636" y="24.0675" width="103.735" height="82.7725" filterUnits="userSpaceOnUse" color-interpolation-filters="sRGB">
<feFlood flood-opacity="0" result="BackgroundImageFix"/>
<feColorMatrix in="SourceAlpha" type="matrix" values="0 0 0 0 0 0 0 0 0 0 0 0 0 0 0 0 0 0 127 0" result="hardAlpha"/>
<feOffset/>
<feGaussianBlur stdDeviation="4.16667"/>
<feColorMatrix type="matrix" values="0 0 0 0 0 0 0 0 0 0 0 0 0 0 0 0 0 0 0.25 0"/>
<feBlend mode="overlay" in2="BackgroundImageFix" result="effect1_dropShadow_26_374"/>
<feBlend mode="normal" in="SourceGraphic" in2="effect1_dropShadow_26_374" result="shape"/>
</filter>
<filter id="filter1_d_26_374" x="62.9821" y="3.15909" width="43.8588" height="103.682" filterUnits="userSpaceOnUse" color-interpolation-filters="sRGB">
<feFlood flood-opacity="0" result="BackgroundImageFix"/>
<feColorMatrix in="SourceAlpha" type="matrix" values="0 0 0 0 0 0 0 0 0 0 0 0 0 0 0 0 0 0 127 0" result="hardAlpha"/>
<feOffset/>
<feGaussianBlur stdDeviation="4.16667"/>
<feColorMatrix type="matrix" values="0 0 0 0 0 0 0 0 0 0 0 0 0 0 0 0 0 0 0.25 0"/>
<feBlend mode="overlay" in2="BackgroundImageFix" result="effect1_dropShadow_26_374"/>
<feBlend mode="normal" in="SourceGraphic" in2="effect1_dropShadow_26_374" result="shape"/>
</filter>
<linearGradient id="paint0_linear_26_374" x1="54.9471" y1="11.4925" x2="54.9471" y2="98.5074" gradientUnits="userSpaceOnUse">
<stop stop-color="white"/>
<stop offset="1" stop-color="white" stop-opacity="0"/>
</linearGradient>
</defs>
</svg>
