<svg width="110" height="110" viewBox="0 0 110 110" fill="none" xmlns="http://www.w3.org/2000/svg">
<path d="M23.2891 0H28.2305V4.89844H32.7852V0H37.7266V14.8242H32.7852V9.88281H28.2734V14.8242H23.2891M44.2578 4.94141H39.8965V0H53.582V4.94141H49.1992V14.8242H44.2578M55.752 0H60.9297L64.1094 5.2207L67.2891 0H72.4668V14.8242H67.5254V7.47656L64.0664 12.8047L60.6074 7.47656V14.8242H55.752M74.916 0H79.8574V9.92578H86.8613V14.8242H74.916" fill="black"/>
<path d="M23.1172 101.191L16.0273 21.6133H93.9727L86.8828 101.148L54.9355 110" fill="#E44D26"/>
<path d="M55 103.232V28.1445H86.8613L80.7813 96.0352" fill="#F16529"/>
<path d="M30.5078 37.877H55V47.6309H41.207L42.1094 57.6211H55V67.3535H33.1719M33.6016 72.2519H43.3984L44.0859 80.0508L55 82.9727V93.1562L34.9766 87.5703" fill="#EBEBEB"/>
<path d="M79.4062 37.877H54.957V47.6309H78.5039M77.623 57.6211H54.957V67.375H66.9883L65.8496 80.0508L54.957 82.9727V93.1133L74.9375 87.5703" fill="white"/>
</svg>
